M48
; DRILL file {KiCad (5.1.5-0-10_14)} date 2020 February 02, Sunday 16:06:20
; FORMAT={-:-/ absolute / metric / decimal}
; #@! TF.CreationDate,2020-02-02T16:06:20+03:00
; #@! TF.GenerationSoftware,Kicad,Pcbnew,(5.1.5-0-10_14)
; #@! TF.FileFunction,Plated,1,2,PTH
FMAT,2
METRIC
T1C0.400
T2C1.000
T3C1.100
%
G90
G05
T1
X136.652Y-113.411
X136.652Y-114.681
X136.652Y-115.951
X136.779Y-117.221
X148.844Y-108.331
X148.844Y-109.626
X148.844Y-110.998
X148.971Y-107.112
X153.416Y-107.442
X155.817Y-107.334
X157.888Y-107.434
X158.496Y-81.788
X158.496Y-108.331
X159.766Y-112.141
X159.766Y-114.732
X159.766Y-118.491
X159.766Y-116.078
X160.541Y-81.827
X162.331Y-81.712
X163.017Y-108.382
X164.103Y-107.296
X166.141Y-81.712
X166.953Y-107.289
X167.484Y-81.788
X168.91Y-81.788
X169.037Y-107.315
X170.356Y-81.712
X170.976Y-107.293
X171.856Y-108.382
X173.101Y-112.192
X173.152Y-114.732
X173.152Y-116.002
X174.498Y-81.788
X174.752Y-118.618
X174.855Y-114.722
X174.855Y-116.002
X175.653Y-81.788
X176.225Y-108.382
X176.784Y-81.788
X178.562Y-81.712
X179.451Y-107.442
X180.594Y-107.442
X181.737Y-107.442
X183.642Y-107.569
X184.556Y-108.382
X186.436Y-112.192
X186.461Y-114.732
X186.461Y-116.002
T2
X128.725Y-105.842
X128.725Y-108.382
X128.725Y-110.922
X128.725Y-113.462
X187.96Y-90.257
X187.96Y-97.857
X128.725Y-96.545
X128.725Y-99.085
X128.725Y-101.625
X131.265Y-96.545
X131.265Y-99.085
X131.265Y-101.625
T3
X151.384Y-82.804
X153.924Y-82.804
T2
G00X136.914Y-85.967
M15
G01X136.914Y-87.967
M16
G05
G00X142.614Y-83.967
M15
G01X140.614Y-83.967
M16
G05
G00X142.614Y-89.967
M15
G01X140.614Y-89.967
M16
G05
T0
M30
