G04 #@! TF.GenerationSoftware,KiCad,Pcbnew,(5.1.5-0-10_14)*
G04 #@! TF.CreationDate,2020-02-02T16:03:58+03:00*
G04 #@! TF.ProjectId,timer,74696d65-722e-46b6-9963-61645f706362,rev?*
G04 #@! TF.SameCoordinates,Original*
G04 #@! TF.FileFunction,Soldermask,Bot*
G04 #@! TF.FilePolarity,Negative*
%FSLAX46Y46*%
G04 Gerber Fmt 4.6, Leading zero omitted, Abs format (unit mm)*
G04 Created by KiCad (PCBNEW (5.1.5-0-10_14)) date 2020-02-02 16:03:58*
%MOMM*%
%LPD*%
G04 APERTURE LIST*
%ADD10C,0.100000*%
G04 APERTURE END LIST*
D10*
G36*
X190375256Y-122391298D02*
G01*
X190481579Y-122412447D01*
X190782042Y-122536903D01*
X191052451Y-122717585D01*
X191282415Y-122947549D01*
X191463097Y-123217958D01*
X191587553Y-123518421D01*
X191651000Y-123837391D01*
X191651000Y-124162609D01*
X191587553Y-124481579D01*
X191463097Y-124782042D01*
X191282415Y-125052451D01*
X191052451Y-125282415D01*
X190782042Y-125463097D01*
X190481579Y-125587553D01*
X190375256Y-125608702D01*
X190162611Y-125651000D01*
X189837389Y-125651000D01*
X189624744Y-125608702D01*
X189518421Y-125587553D01*
X189217958Y-125463097D01*
X188947549Y-125282415D01*
X188717585Y-125052451D01*
X188536903Y-124782042D01*
X188412447Y-124481579D01*
X188349000Y-124162609D01*
X188349000Y-123837391D01*
X188412447Y-123518421D01*
X188536903Y-123217958D01*
X188717585Y-122947549D01*
X188947549Y-122717585D01*
X189217958Y-122536903D01*
X189518421Y-122412447D01*
X189624744Y-122391298D01*
X189837389Y-122349000D01*
X190162611Y-122349000D01*
X190375256Y-122391298D01*
G37*
G36*
X130375256Y-122391298D02*
G01*
X130481579Y-122412447D01*
X130782042Y-122536903D01*
X131052451Y-122717585D01*
X131282415Y-122947549D01*
X131463097Y-123217958D01*
X131587553Y-123518421D01*
X131651000Y-123837391D01*
X131651000Y-124162609D01*
X131587553Y-124481579D01*
X131463097Y-124782042D01*
X131282415Y-125052451D01*
X131052451Y-125282415D01*
X130782042Y-125463097D01*
X130481579Y-125587553D01*
X130375256Y-125608702D01*
X130162611Y-125651000D01*
X129837389Y-125651000D01*
X129624744Y-125608702D01*
X129518421Y-125587553D01*
X129217958Y-125463097D01*
X128947549Y-125282415D01*
X128717585Y-125052451D01*
X128536903Y-124782042D01*
X128412447Y-124481579D01*
X128349000Y-124162609D01*
X128349000Y-123837391D01*
X128412447Y-123518421D01*
X128536903Y-123217958D01*
X128717585Y-122947549D01*
X128947549Y-122717585D01*
X129217958Y-122536903D01*
X129518421Y-122412447D01*
X129624744Y-122391298D01*
X129837389Y-122349000D01*
X130162611Y-122349000D01*
X130375256Y-122391298D01*
G37*
G36*
X128838512Y-112565727D02*
G01*
X128987812Y-112595424D01*
X129151784Y-112663344D01*
X129299354Y-112761947D01*
X129424853Y-112887446D01*
X129523456Y-113035016D01*
X129591376Y-113198988D01*
X129626000Y-113373059D01*
X129626000Y-113550541D01*
X129591376Y-113724612D01*
X129523456Y-113888584D01*
X129424853Y-114036154D01*
X129299354Y-114161653D01*
X129151784Y-114260256D01*
X128987812Y-114328176D01*
X128838512Y-114357873D01*
X128813742Y-114362800D01*
X128636258Y-114362800D01*
X128611488Y-114357873D01*
X128462188Y-114328176D01*
X128298216Y-114260256D01*
X128150646Y-114161653D01*
X128025147Y-114036154D01*
X127926544Y-113888584D01*
X127858624Y-113724612D01*
X127824000Y-113550541D01*
X127824000Y-113373059D01*
X127858624Y-113198988D01*
X127926544Y-113035016D01*
X128025147Y-112887446D01*
X128150646Y-112761947D01*
X128298216Y-112663344D01*
X128462188Y-112595424D01*
X128611488Y-112565727D01*
X128636258Y-112560800D01*
X128813742Y-112560800D01*
X128838512Y-112565727D01*
G37*
G36*
X128838512Y-110025727D02*
G01*
X128987812Y-110055424D01*
X129151784Y-110123344D01*
X129299354Y-110221947D01*
X129424853Y-110347446D01*
X129523456Y-110495016D01*
X129591376Y-110658988D01*
X129626000Y-110833059D01*
X129626000Y-111010541D01*
X129591376Y-111184612D01*
X129523456Y-111348584D01*
X129424853Y-111496154D01*
X129299354Y-111621653D01*
X129151784Y-111720256D01*
X128987812Y-111788176D01*
X128838512Y-111817873D01*
X128813742Y-111822800D01*
X128636258Y-111822800D01*
X128611488Y-111817873D01*
X128462188Y-111788176D01*
X128298216Y-111720256D01*
X128150646Y-111621653D01*
X128025147Y-111496154D01*
X127926544Y-111348584D01*
X127858624Y-111184612D01*
X127824000Y-111010541D01*
X127824000Y-110833059D01*
X127858624Y-110658988D01*
X127926544Y-110495016D01*
X128025147Y-110347446D01*
X128150646Y-110221947D01*
X128298216Y-110123344D01*
X128462188Y-110055424D01*
X128611488Y-110025727D01*
X128636258Y-110020800D01*
X128813742Y-110020800D01*
X128838512Y-110025727D01*
G37*
G36*
X128838512Y-107485727D02*
G01*
X128987812Y-107515424D01*
X129151784Y-107583344D01*
X129299354Y-107681947D01*
X129424853Y-107807446D01*
X129523456Y-107955016D01*
X129591376Y-108118988D01*
X129626000Y-108293059D01*
X129626000Y-108470541D01*
X129591376Y-108644612D01*
X129523456Y-108808584D01*
X129424853Y-108956154D01*
X129299354Y-109081653D01*
X129151784Y-109180256D01*
X128987812Y-109248176D01*
X128838512Y-109277873D01*
X128813742Y-109282800D01*
X128636258Y-109282800D01*
X128611488Y-109277873D01*
X128462188Y-109248176D01*
X128298216Y-109180256D01*
X128150646Y-109081653D01*
X128025147Y-108956154D01*
X127926544Y-108808584D01*
X127858624Y-108644612D01*
X127824000Y-108470541D01*
X127824000Y-108293059D01*
X127858624Y-108118988D01*
X127926544Y-107955016D01*
X128025147Y-107807446D01*
X128150646Y-107681947D01*
X128298216Y-107583344D01*
X128462188Y-107515424D01*
X128611488Y-107485727D01*
X128636258Y-107480800D01*
X128813742Y-107480800D01*
X128838512Y-107485727D01*
G37*
G36*
X129626000Y-106742800D02*
G01*
X127824000Y-106742800D01*
X127824000Y-104940800D01*
X129626000Y-104940800D01*
X129626000Y-106742800D01*
G37*
G36*
X131378512Y-100729327D02*
G01*
X131527812Y-100759024D01*
X131691784Y-100826944D01*
X131839354Y-100925547D01*
X131964853Y-101051046D01*
X132063456Y-101198616D01*
X132131376Y-101362588D01*
X132166000Y-101536659D01*
X132166000Y-101714141D01*
X132131376Y-101888212D01*
X132063456Y-102052184D01*
X131964853Y-102199754D01*
X131839354Y-102325253D01*
X131691784Y-102423856D01*
X131527812Y-102491776D01*
X131378512Y-102521473D01*
X131353742Y-102526400D01*
X131176258Y-102526400D01*
X131151488Y-102521473D01*
X131002188Y-102491776D01*
X130838216Y-102423856D01*
X130690646Y-102325253D01*
X130565147Y-102199754D01*
X130466544Y-102052184D01*
X130398624Y-101888212D01*
X130364000Y-101714141D01*
X130364000Y-101536659D01*
X130398624Y-101362588D01*
X130466544Y-101198616D01*
X130565147Y-101051046D01*
X130690646Y-100925547D01*
X130838216Y-100826944D01*
X131002188Y-100759024D01*
X131151488Y-100729327D01*
X131176258Y-100724400D01*
X131353742Y-100724400D01*
X131378512Y-100729327D01*
G37*
G36*
X128838512Y-100729327D02*
G01*
X128987812Y-100759024D01*
X129151784Y-100826944D01*
X129299354Y-100925547D01*
X129424853Y-101051046D01*
X129523456Y-101198616D01*
X129591376Y-101362588D01*
X129626000Y-101536659D01*
X129626000Y-101714141D01*
X129591376Y-101888212D01*
X129523456Y-102052184D01*
X129424853Y-102199754D01*
X129299354Y-102325253D01*
X129151784Y-102423856D01*
X128987812Y-102491776D01*
X128838512Y-102521473D01*
X128813742Y-102526400D01*
X128636258Y-102526400D01*
X128611488Y-102521473D01*
X128462188Y-102491776D01*
X128298216Y-102423856D01*
X128150646Y-102325253D01*
X128025147Y-102199754D01*
X127926544Y-102052184D01*
X127858624Y-101888212D01*
X127824000Y-101714141D01*
X127824000Y-101536659D01*
X127858624Y-101362588D01*
X127926544Y-101198616D01*
X128025147Y-101051046D01*
X128150646Y-100925547D01*
X128298216Y-100826944D01*
X128462188Y-100759024D01*
X128611488Y-100729327D01*
X128636258Y-100724400D01*
X128813742Y-100724400D01*
X128838512Y-100729327D01*
G37*
G36*
X131378512Y-98189327D02*
G01*
X131527812Y-98219024D01*
X131691784Y-98286944D01*
X131839354Y-98385547D01*
X131964853Y-98511046D01*
X132063456Y-98658616D01*
X132131376Y-98822588D01*
X132166000Y-98996659D01*
X132166000Y-99174141D01*
X132131376Y-99348212D01*
X132063456Y-99512184D01*
X131964853Y-99659754D01*
X131839354Y-99785253D01*
X131691784Y-99883856D01*
X131527812Y-99951776D01*
X131378512Y-99981473D01*
X131353742Y-99986400D01*
X131176258Y-99986400D01*
X131151488Y-99981473D01*
X131002188Y-99951776D01*
X130838216Y-99883856D01*
X130690646Y-99785253D01*
X130565147Y-99659754D01*
X130466544Y-99512184D01*
X130398624Y-99348212D01*
X130364000Y-99174141D01*
X130364000Y-98996659D01*
X130398624Y-98822588D01*
X130466544Y-98658616D01*
X130565147Y-98511046D01*
X130690646Y-98385547D01*
X130838216Y-98286944D01*
X131002188Y-98219024D01*
X131151488Y-98189327D01*
X131176258Y-98184400D01*
X131353742Y-98184400D01*
X131378512Y-98189327D01*
G37*
G36*
X128838512Y-98189327D02*
G01*
X128987812Y-98219024D01*
X129151784Y-98286944D01*
X129299354Y-98385547D01*
X129424853Y-98511046D01*
X129523456Y-98658616D01*
X129591376Y-98822588D01*
X129626000Y-98996659D01*
X129626000Y-99174141D01*
X129591376Y-99348212D01*
X129523456Y-99512184D01*
X129424853Y-99659754D01*
X129299354Y-99785253D01*
X129151784Y-99883856D01*
X128987812Y-99951776D01*
X128838512Y-99981473D01*
X128813742Y-99986400D01*
X128636258Y-99986400D01*
X128611488Y-99981473D01*
X128462188Y-99951776D01*
X128298216Y-99883856D01*
X128150646Y-99785253D01*
X128025147Y-99659754D01*
X127926544Y-99512184D01*
X127858624Y-99348212D01*
X127824000Y-99174141D01*
X127824000Y-98996659D01*
X127858624Y-98822588D01*
X127926544Y-98658616D01*
X128025147Y-98511046D01*
X128150646Y-98385547D01*
X128298216Y-98286944D01*
X128462188Y-98219024D01*
X128611488Y-98189327D01*
X128636258Y-98184400D01*
X128813742Y-98184400D01*
X128838512Y-98189327D01*
G37*
G36*
X189011000Y-98907800D02*
G01*
X186909000Y-98907800D01*
X186909000Y-96805800D01*
X189011000Y-96805800D01*
X189011000Y-98907800D01*
G37*
G36*
X131378512Y-95649327D02*
G01*
X131527812Y-95679024D01*
X131691784Y-95746944D01*
X131839354Y-95845547D01*
X131964853Y-95971046D01*
X132063456Y-96118616D01*
X132131376Y-96282588D01*
X132166000Y-96456659D01*
X132166000Y-96634141D01*
X132131376Y-96808212D01*
X132063456Y-96972184D01*
X131964853Y-97119754D01*
X131839354Y-97245253D01*
X131691784Y-97343856D01*
X131527812Y-97411776D01*
X131378512Y-97441473D01*
X131353742Y-97446400D01*
X131176258Y-97446400D01*
X131151488Y-97441473D01*
X131002188Y-97411776D01*
X130838216Y-97343856D01*
X130690646Y-97245253D01*
X130565147Y-97119754D01*
X130466544Y-96972184D01*
X130398624Y-96808212D01*
X130364000Y-96634141D01*
X130364000Y-96456659D01*
X130398624Y-96282588D01*
X130466544Y-96118616D01*
X130565147Y-95971046D01*
X130690646Y-95845547D01*
X130838216Y-95746944D01*
X131002188Y-95679024D01*
X131151488Y-95649327D01*
X131176258Y-95644400D01*
X131353742Y-95644400D01*
X131378512Y-95649327D01*
G37*
G36*
X129626000Y-97446400D02*
G01*
X127824000Y-97446400D01*
X127824000Y-95644400D01*
X129626000Y-95644400D01*
X129626000Y-97446400D01*
G37*
G36*
X143415401Y-91767800D02*
G01*
X139813401Y-91767800D01*
X139813401Y-88165800D01*
X143415401Y-88165800D01*
X143415401Y-91767800D01*
G37*
G36*
X188266564Y-89246189D02*
G01*
X188457833Y-89325415D01*
X188457835Y-89325416D01*
X188629973Y-89440435D01*
X188776365Y-89586827D01*
X188891385Y-89758967D01*
X188970611Y-89950236D01*
X189011000Y-90153284D01*
X189011000Y-90360316D01*
X188970611Y-90563364D01*
X188891385Y-90754633D01*
X188891384Y-90754635D01*
X188776365Y-90926773D01*
X188629973Y-91073165D01*
X188457835Y-91188184D01*
X188457834Y-91188185D01*
X188457833Y-91188185D01*
X188266564Y-91267411D01*
X188063516Y-91307800D01*
X187856484Y-91307800D01*
X187653436Y-91267411D01*
X187462167Y-91188185D01*
X187462166Y-91188185D01*
X187462165Y-91188184D01*
X187290027Y-91073165D01*
X187143635Y-90926773D01*
X187028616Y-90754635D01*
X187028615Y-90754633D01*
X186949389Y-90563364D01*
X186909000Y-90360316D01*
X186909000Y-90153284D01*
X186949389Y-89950236D01*
X187028615Y-89758967D01*
X187143635Y-89586827D01*
X187290027Y-89440435D01*
X187462165Y-89325416D01*
X187462167Y-89325415D01*
X187653436Y-89246189D01*
X187856484Y-89205800D01*
X188063516Y-89205800D01*
X188266564Y-89246189D01*
G37*
G36*
X138040767Y-85182495D02*
G01*
X138197861Y-85230149D01*
X138342632Y-85307531D01*
X138469529Y-85411672D01*
X138573670Y-85538569D01*
X138651052Y-85683340D01*
X138698706Y-85840434D01*
X138715401Y-86009940D01*
X138715401Y-87923660D01*
X138698706Y-88093166D01*
X138651052Y-88250260D01*
X138573670Y-88395031D01*
X138469529Y-88521928D01*
X138342632Y-88626069D01*
X138197861Y-88703451D01*
X138040767Y-88751105D01*
X137871261Y-88767800D01*
X135957541Y-88767800D01*
X135788035Y-88751105D01*
X135630941Y-88703451D01*
X135486170Y-88626069D01*
X135359273Y-88521928D01*
X135255132Y-88395031D01*
X135177750Y-88250260D01*
X135130096Y-88093166D01*
X135113401Y-87923660D01*
X135113401Y-86009940D01*
X135130096Y-85840434D01*
X135177750Y-85683340D01*
X135255132Y-85538569D01*
X135359273Y-85411672D01*
X135486170Y-85307531D01*
X135630941Y-85230149D01*
X135788035Y-85182495D01*
X135957541Y-85165800D01*
X137871261Y-85165800D01*
X138040767Y-85182495D01*
G37*
G36*
X130375256Y-82391298D02*
G01*
X130481579Y-82412447D01*
X130651549Y-82482851D01*
X130780983Y-82536464D01*
X130782042Y-82536903D01*
X131052451Y-82717585D01*
X131282415Y-82947549D01*
X131463097Y-83217958D01*
X131587553Y-83518421D01*
X131651000Y-83837391D01*
X131651000Y-84162609D01*
X131587553Y-84481579D01*
X131463097Y-84782042D01*
X131282415Y-85052451D01*
X131052451Y-85282415D01*
X130782042Y-85463097D01*
X130481579Y-85587553D01*
X130375256Y-85608702D01*
X130162611Y-85651000D01*
X129837389Y-85651000D01*
X129624744Y-85608702D01*
X129518421Y-85587553D01*
X129217958Y-85463097D01*
X128947549Y-85282415D01*
X128717585Y-85052451D01*
X128536903Y-84782042D01*
X128412447Y-84481579D01*
X128349000Y-84162609D01*
X128349000Y-83837391D01*
X128412447Y-83518421D01*
X128536903Y-83217958D01*
X128717585Y-82947549D01*
X128947549Y-82717585D01*
X129217958Y-82536903D01*
X129219018Y-82536464D01*
X129348451Y-82482851D01*
X129518421Y-82412447D01*
X129624744Y-82391298D01*
X129837389Y-82349000D01*
X130162611Y-82349000D01*
X130375256Y-82391298D01*
G37*
G36*
X190375256Y-82391298D02*
G01*
X190481579Y-82412447D01*
X190651549Y-82482851D01*
X190780983Y-82536464D01*
X190782042Y-82536903D01*
X191052451Y-82717585D01*
X191282415Y-82947549D01*
X191463097Y-83217958D01*
X191587553Y-83518421D01*
X191651000Y-83837391D01*
X191651000Y-84162609D01*
X191587553Y-84481579D01*
X191463097Y-84782042D01*
X191282415Y-85052451D01*
X191052451Y-85282415D01*
X190782042Y-85463097D01*
X190481579Y-85587553D01*
X190375256Y-85608702D01*
X190162611Y-85651000D01*
X189837389Y-85651000D01*
X189624744Y-85608702D01*
X189518421Y-85587553D01*
X189217958Y-85463097D01*
X188947549Y-85282415D01*
X188717585Y-85052451D01*
X188536903Y-84782042D01*
X188412447Y-84481579D01*
X188349000Y-84162609D01*
X188349000Y-83837391D01*
X188412447Y-83518421D01*
X188536903Y-83217958D01*
X188717585Y-82947549D01*
X188947549Y-82717585D01*
X189217958Y-82536903D01*
X189219018Y-82536464D01*
X189348451Y-82482851D01*
X189518421Y-82412447D01*
X189624744Y-82391298D01*
X189837389Y-82349000D01*
X190162611Y-82349000D01*
X190375256Y-82391298D01*
G37*
G36*
X142841380Y-82430093D02*
G01*
X142975026Y-82470634D01*
X143098185Y-82536464D01*
X143206141Y-82625060D01*
X143294737Y-82733016D01*
X143360567Y-82856175D01*
X143401108Y-82989821D01*
X143415401Y-83134940D01*
X143415401Y-84798660D01*
X143401108Y-84943779D01*
X143360567Y-85077425D01*
X143294737Y-85200584D01*
X143206141Y-85308540D01*
X143098185Y-85397136D01*
X142975026Y-85462966D01*
X142841380Y-85503507D01*
X142696261Y-85517800D01*
X140532541Y-85517800D01*
X140387422Y-85503507D01*
X140253776Y-85462966D01*
X140130617Y-85397136D01*
X140022661Y-85308540D01*
X139934065Y-85200584D01*
X139868235Y-85077425D01*
X139827694Y-84943779D01*
X139813401Y-84798660D01*
X139813401Y-83134940D01*
X139827694Y-82989821D01*
X139868235Y-82856175D01*
X139934065Y-82733016D01*
X140022661Y-82625060D01*
X140130617Y-82536464D01*
X140253776Y-82470634D01*
X140387422Y-82430093D01*
X140532541Y-82415800D01*
X142696261Y-82415800D01*
X142841380Y-82430093D01*
G37*
G36*
X152485000Y-83905000D02*
G01*
X150283000Y-83905000D01*
X150283000Y-81703000D01*
X152485000Y-81703000D01*
X152485000Y-83905000D01*
G37*
G36*
X154138794Y-81724155D02*
G01*
X154245150Y-81745311D01*
X154445520Y-81828307D01*
X154625844Y-81948795D01*
X154779205Y-82102156D01*
X154899693Y-82282480D01*
X154899693Y-82282481D01*
X154982689Y-82482850D01*
X155025000Y-82695561D01*
X155025000Y-82912439D01*
X154982689Y-83125150D01*
X154944246Y-83217958D01*
X154899693Y-83325520D01*
X154779205Y-83505844D01*
X154625844Y-83659205D01*
X154445520Y-83779693D01*
X154345334Y-83821191D01*
X154245150Y-83862689D01*
X154138794Y-83883845D01*
X154032440Y-83905000D01*
X153815560Y-83905000D01*
X153709205Y-83883844D01*
X153602850Y-83862689D01*
X153502666Y-83821191D01*
X153402480Y-83779693D01*
X153222156Y-83659205D01*
X153068795Y-83505844D01*
X152948307Y-83325520D01*
X152903754Y-83217958D01*
X152865311Y-83125150D01*
X152823000Y-82912439D01*
X152823000Y-82695561D01*
X152865311Y-82482850D01*
X152948307Y-82282481D01*
X152948307Y-82282480D01*
X153068795Y-82102156D01*
X153222156Y-81948795D01*
X153402480Y-81828307D01*
X153602850Y-81745311D01*
X153709206Y-81724155D01*
X153815560Y-81703000D01*
X154032440Y-81703000D01*
X154138794Y-81724155D01*
G37*
M02*
