G04 #@! TF.GenerationSoftware,KiCad,Pcbnew,(5.1.5-0-10_14)*
G04 #@! TF.CreationDate,2020-02-02T16:03:58+03:00*
G04 #@! TF.ProjectId,timer,74696d65-722e-46b6-9963-61645f706362,rev?*
G04 #@! TF.SameCoordinates,Original*
G04 #@! TF.FileFunction,Legend,Top*
G04 #@! TF.FilePolarity,Positive*
%FSLAX46Y46*%
G04 Gerber Fmt 4.6, Leading zero omitted, Abs format (unit mm)*
G04 Created by KiCad (PCBNEW (5.1.5-0-10_14)) date 2020-02-02 16:03:58*
%MOMM*%
%LPD*%
G04 APERTURE LIST*
%ADD10C,0.150000*%
%ADD11C,0.120000*%
G04 APERTURE END LIST*
D10*
X164671952Y-95337380D02*
X164671952Y-96051666D01*
X164624333Y-96194523D01*
X164529095Y-96289761D01*
X164386238Y-96337380D01*
X164291000Y-96337380D01*
X165624333Y-96337380D02*
X165148142Y-96337380D01*
X165148142Y-95337380D01*
X166529095Y-96242142D02*
X166481476Y-96289761D01*
X166338619Y-96337380D01*
X166243380Y-96337380D01*
X166100523Y-96289761D01*
X166005285Y-96194523D01*
X165957666Y-96099285D01*
X165910047Y-95908809D01*
X165910047Y-95765952D01*
X165957666Y-95575476D01*
X166005285Y-95480238D01*
X166100523Y-95385000D01*
X166243380Y-95337380D01*
X166338619Y-95337380D01*
X166481476Y-95385000D01*
X166529095Y-95432619D01*
X167243380Y-95337380D02*
X167243380Y-96051666D01*
X167195761Y-96194523D01*
X167100523Y-96289761D01*
X166957666Y-96337380D01*
X166862428Y-96337380D01*
X168195761Y-96337380D02*
X167719571Y-96337380D01*
X167719571Y-95337380D01*
X169100523Y-96242142D02*
X169052904Y-96289761D01*
X168910047Y-96337380D01*
X168814809Y-96337380D01*
X168671952Y-96289761D01*
X168576714Y-96194523D01*
X168529095Y-96099285D01*
X168481476Y-95908809D01*
X168481476Y-95765952D01*
X168529095Y-95575476D01*
X168576714Y-95480238D01*
X168671952Y-95385000D01*
X168814809Y-95337380D01*
X168910047Y-95337380D01*
X169052904Y-95385000D01*
X169100523Y-95432619D01*
X169814809Y-95337380D02*
X169814809Y-96051666D01*
X169767190Y-96194523D01*
X169671952Y-96289761D01*
X169529095Y-96337380D01*
X169433857Y-96337380D01*
X170767190Y-96337380D02*
X170291000Y-96337380D01*
X170291000Y-95337380D01*
X171671952Y-96242142D02*
X171624333Y-96289761D01*
X171481476Y-96337380D01*
X171386238Y-96337380D01*
X171243380Y-96289761D01*
X171148142Y-96194523D01*
X171100523Y-96099285D01*
X171052904Y-95908809D01*
X171052904Y-95765952D01*
X171100523Y-95575476D01*
X171148142Y-95480238D01*
X171243380Y-95385000D01*
X171386238Y-95337380D01*
X171481476Y-95337380D01*
X171624333Y-95385000D01*
X171671952Y-95432619D01*
X172386238Y-95337380D02*
X172386238Y-96051666D01*
X172338619Y-96194523D01*
X172243380Y-96289761D01*
X172100523Y-96337380D01*
X172005285Y-96337380D01*
X173338619Y-96337380D02*
X172862428Y-96337380D01*
X172862428Y-95337380D01*
X174243380Y-96242142D02*
X174195761Y-96289761D01*
X174052904Y-96337380D01*
X173957666Y-96337380D01*
X173814809Y-96289761D01*
X173719571Y-96194523D01*
X173671952Y-96099285D01*
X173624333Y-95908809D01*
X173624333Y-95765952D01*
X173671952Y-95575476D01*
X173719571Y-95480238D01*
X173814809Y-95385000D01*
X173957666Y-95337380D01*
X174052904Y-95337380D01*
X174195761Y-95385000D01*
X174243380Y-95432619D01*
X131415404Y-113038000D02*
X131320166Y-112990380D01*
X131177309Y-112990380D01*
X131034452Y-113038000D01*
X130939214Y-113133238D01*
X130891595Y-113228476D01*
X130843976Y-113418952D01*
X130843976Y-113561809D01*
X130891595Y-113752285D01*
X130939214Y-113847523D01*
X131034452Y-113942761D01*
X131177309Y-113990380D01*
X131272547Y-113990380D01*
X131415404Y-113942761D01*
X131463023Y-113895142D01*
X131463023Y-113561809D01*
X131272547Y-113561809D01*
X131891595Y-113990380D02*
X131891595Y-112990380D01*
X132463023Y-113990380D01*
X132463023Y-112990380D01*
X132939214Y-113990380D02*
X132939214Y-112990380D01*
X133177309Y-112990380D01*
X133320166Y-113038000D01*
X133415404Y-113133238D01*
X133463023Y-113228476D01*
X133510642Y-113418952D01*
X133510642Y-113561809D01*
X133463023Y-113752285D01*
X133415404Y-113847523D01*
X133320166Y-113942761D01*
X133177309Y-113990380D01*
X132939214Y-113990380D01*
X130748738Y-110450380D02*
X131320166Y-110450380D01*
X131034452Y-111450380D02*
X131034452Y-110450380D01*
X131558261Y-110450380D02*
X132224928Y-111450380D01*
X132224928Y-110450380D02*
X131558261Y-111450380D01*
X131463023Y-108910380D02*
X131129690Y-108434190D01*
X130891595Y-108910380D02*
X130891595Y-107910380D01*
X131272547Y-107910380D01*
X131367785Y-107958000D01*
X131415404Y-108005619D01*
X131463023Y-108100857D01*
X131463023Y-108243714D01*
X131415404Y-108338952D01*
X131367785Y-108386571D01*
X131272547Y-108434190D01*
X130891595Y-108434190D01*
X131796357Y-107910380D02*
X132463023Y-108910380D01*
X132463023Y-107910380D02*
X131796357Y-108910380D01*
X130748738Y-105370380D02*
X131082071Y-106370380D01*
X131415404Y-105370380D01*
X132320166Y-106275142D02*
X132272547Y-106322761D01*
X132129690Y-106370380D01*
X132034452Y-106370380D01*
X131891595Y-106322761D01*
X131796357Y-106227523D01*
X131748738Y-106132285D01*
X131701119Y-105941809D01*
X131701119Y-105798952D01*
X131748738Y-105608476D01*
X131796357Y-105513238D01*
X131891595Y-105418000D01*
X132034452Y-105370380D01*
X132129690Y-105370380D01*
X132272547Y-105418000D01*
X132320166Y-105465619D01*
X133320166Y-106275142D02*
X133272547Y-106322761D01*
X133129690Y-106370380D01*
X133034452Y-106370380D01*
X132891595Y-106322761D01*
X132796357Y-106227523D01*
X132748738Y-106132285D01*
X132701119Y-105941809D01*
X132701119Y-105798952D01*
X132748738Y-105608476D01*
X132796357Y-105513238D01*
X132891595Y-105418000D01*
X133034452Y-105370380D01*
X133129690Y-105370380D01*
X133272547Y-105418000D01*
X133320166Y-105465619D01*
X184596738Y-102767380D02*
X185168166Y-102767380D01*
X184882452Y-103767380D02*
X184882452Y-102767380D01*
X185501500Y-103767380D02*
X185501500Y-103100714D01*
X185501500Y-102767380D02*
X185453880Y-102815000D01*
X185501500Y-102862619D01*
X185549119Y-102815000D01*
X185501500Y-102767380D01*
X185501500Y-102862619D01*
X185977690Y-103767380D02*
X185977690Y-103100714D01*
X185977690Y-103195952D02*
X186025309Y-103148333D01*
X186120547Y-103100714D01*
X186263404Y-103100714D01*
X186358642Y-103148333D01*
X186406261Y-103243571D01*
X186406261Y-103767380D01*
X186406261Y-103243571D02*
X186453880Y-103148333D01*
X186549119Y-103100714D01*
X186691976Y-103100714D01*
X186787214Y-103148333D01*
X186834833Y-103243571D01*
X186834833Y-103767380D01*
X187691976Y-103719761D02*
X187596738Y-103767380D01*
X187406261Y-103767380D01*
X187311023Y-103719761D01*
X187263404Y-103624523D01*
X187263404Y-103243571D01*
X187311023Y-103148333D01*
X187406261Y-103100714D01*
X187596738Y-103100714D01*
X187691976Y-103148333D01*
X187739595Y-103243571D01*
X187739595Y-103338809D01*
X187263404Y-103434047D01*
X188168166Y-103767380D02*
X188168166Y-103100714D01*
X188168166Y-103291190D02*
X188215785Y-103195952D01*
X188263404Y-103148333D01*
X188358642Y-103100714D01*
X188453880Y-103100714D01*
X189453880Y-103100714D02*
X189691976Y-103767380D01*
X189930071Y-103100714D01*
X190501500Y-102767380D02*
X190596738Y-102767380D01*
X190691976Y-102815000D01*
X190739595Y-102862619D01*
X190787214Y-102957857D01*
X190834833Y-103148333D01*
X190834833Y-103386428D01*
X190787214Y-103576904D01*
X190739595Y-103672142D01*
X190691976Y-103719761D01*
X190596738Y-103767380D01*
X190501500Y-103767380D01*
X190406261Y-103719761D01*
X190358642Y-103672142D01*
X190311023Y-103576904D01*
X190263404Y-103386428D01*
X190263404Y-103148333D01*
X190311023Y-102957857D01*
X190358642Y-102862619D01*
X190406261Y-102815000D01*
X190501500Y-102767380D01*
X191263404Y-103672142D02*
X191311023Y-103719761D01*
X191263404Y-103767380D01*
X191215785Y-103719761D01*
X191263404Y-103672142D01*
X191263404Y-103767380D01*
X192263404Y-103767380D02*
X191691976Y-103767380D01*
X191977690Y-103767380D02*
X191977690Y-102767380D01*
X191882452Y-102910238D01*
X191787214Y-103005476D01*
X191691976Y-103053095D01*
X185072928Y-104893571D02*
X185215785Y-104941190D01*
X185263404Y-104988809D01*
X185311023Y-105084047D01*
X185311023Y-105226904D01*
X185263404Y-105322142D01*
X185215785Y-105369761D01*
X185120547Y-105417380D01*
X184739595Y-105417380D01*
X184739595Y-104417380D01*
X185072928Y-104417380D01*
X185168166Y-104465000D01*
X185215785Y-104512619D01*
X185263404Y-104607857D01*
X185263404Y-104703095D01*
X185215785Y-104798333D01*
X185168166Y-104845952D01*
X185072928Y-104893571D01*
X184739595Y-104893571D01*
X186311023Y-105417380D02*
X185977690Y-104941190D01*
X185739595Y-105417380D02*
X185739595Y-104417380D01*
X186120547Y-104417380D01*
X186215785Y-104465000D01*
X186263404Y-104512619D01*
X186311023Y-104607857D01*
X186311023Y-104750714D01*
X186263404Y-104845952D01*
X186215785Y-104893571D01*
X186120547Y-104941190D01*
X185739595Y-104941190D01*
X186739595Y-105417380D02*
X186739595Y-104417380D01*
X187311023Y-105417380D01*
X187311023Y-104417380D01*
X187644357Y-104417380D02*
X187977690Y-105417380D01*
X188311023Y-104417380D01*
X188644357Y-105322142D02*
X188691976Y-105369761D01*
X188644357Y-105417380D01*
X188596738Y-105369761D01*
X188644357Y-105322142D01*
X188644357Y-105417380D01*
X189691976Y-105417380D02*
X189358642Y-104941190D01*
X189120547Y-105417380D02*
X189120547Y-104417380D01*
X189501500Y-104417380D01*
X189596738Y-104465000D01*
X189644357Y-104512619D01*
X189691976Y-104607857D01*
X189691976Y-104750714D01*
X189644357Y-104845952D01*
X189596738Y-104893571D01*
X189501500Y-104941190D01*
X189120547Y-104941190D01*
X190120547Y-104417380D02*
X190120547Y-105226904D01*
X190168166Y-105322142D01*
X190215785Y-105369761D01*
X190311023Y-105417380D01*
X190501500Y-105417380D01*
X190596738Y-105369761D01*
X190644357Y-105322142D01*
X190691976Y-105226904D01*
X190691976Y-104417380D01*
X149154000Y-86955380D02*
X149487333Y-87955380D01*
X149820666Y-86955380D01*
X150344476Y-86955380D02*
X150534952Y-86955380D01*
X150630190Y-87003000D01*
X150725428Y-87098238D01*
X150773047Y-87288714D01*
X150773047Y-87622047D01*
X150725428Y-87812523D01*
X150630190Y-87907761D01*
X150534952Y-87955380D01*
X150344476Y-87955380D01*
X150249238Y-87907761D01*
X150154000Y-87812523D01*
X150106380Y-87622047D01*
X150106380Y-87288714D01*
X150154000Y-87098238D01*
X150249238Y-87003000D01*
X150344476Y-86955380D01*
X151630190Y-87288714D02*
X151630190Y-87955380D01*
X151201619Y-87288714D02*
X151201619Y-87812523D01*
X151249238Y-87907761D01*
X151344476Y-87955380D01*
X151487333Y-87955380D01*
X151582571Y-87907761D01*
X151630190Y-87860142D01*
X151963523Y-87288714D02*
X152344476Y-87288714D01*
X152106380Y-86955380D02*
X152106380Y-87812523D01*
X152154000Y-87907761D01*
X152249238Y-87955380D01*
X152344476Y-87955380D01*
X153963523Y-87003000D02*
X153868285Y-86955380D01*
X153725428Y-86955380D01*
X153582571Y-87003000D01*
X153487333Y-87098238D01*
X153439714Y-87193476D01*
X153392095Y-87383952D01*
X153392095Y-87526809D01*
X153439714Y-87717285D01*
X153487333Y-87812523D01*
X153582571Y-87907761D01*
X153725428Y-87955380D01*
X153820666Y-87955380D01*
X153963523Y-87907761D01*
X154011142Y-87860142D01*
X154011142Y-87526809D01*
X153820666Y-87526809D01*
X154439714Y-87955380D02*
X154439714Y-86955380D01*
X155011142Y-87955380D01*
X155011142Y-86955380D01*
X155487333Y-87955380D02*
X155487333Y-86955380D01*
X155725428Y-86955380D01*
X155868285Y-87003000D01*
X155963523Y-87098238D01*
X156011142Y-87193476D01*
X156058761Y-87383952D01*
X156058761Y-87526809D01*
X156011142Y-87717285D01*
X155963523Y-87812523D01*
X155868285Y-87907761D01*
X155725428Y-87955380D01*
X155487333Y-87955380D01*
X178617809Y-120800761D02*
X178760666Y-120848380D01*
X178998761Y-120848380D01*
X179094000Y-120800761D01*
X179141619Y-120753142D01*
X179189238Y-120657904D01*
X179189238Y-120562666D01*
X179141619Y-120467428D01*
X179094000Y-120419809D01*
X178998761Y-120372190D01*
X178808285Y-120324571D01*
X178713047Y-120276952D01*
X178665428Y-120229333D01*
X178617809Y-120134095D01*
X178617809Y-120038857D01*
X178665428Y-119943619D01*
X178713047Y-119896000D01*
X178808285Y-119848380D01*
X179046380Y-119848380D01*
X179189238Y-119896000D01*
X179474952Y-119848380D02*
X180046380Y-119848380D01*
X179760666Y-120848380D02*
X179760666Y-119848380D01*
X180332095Y-120562666D02*
X180808285Y-120562666D01*
X180236857Y-120848380D02*
X180570190Y-119848380D01*
X180903523Y-120848380D01*
X181808285Y-120848380D02*
X181474952Y-120372190D01*
X181236857Y-120848380D02*
X181236857Y-119848380D01*
X181617809Y-119848380D01*
X181713047Y-119896000D01*
X181760666Y-119943619D01*
X181808285Y-120038857D01*
X181808285Y-120181714D01*
X181760666Y-120276952D01*
X181713047Y-120324571D01*
X181617809Y-120372190D01*
X181236857Y-120372190D01*
X182094000Y-119848380D02*
X182665428Y-119848380D01*
X182379714Y-120848380D02*
X182379714Y-119848380D01*
X167283047Y-120848380D02*
X167283047Y-119848380D01*
X167521142Y-119848380D01*
X167664000Y-119896000D01*
X167759238Y-119991238D01*
X167806857Y-120086476D01*
X167854476Y-120276952D01*
X167854476Y-120419809D01*
X167806857Y-120610285D01*
X167759238Y-120705523D01*
X167664000Y-120800761D01*
X167521142Y-120848380D01*
X167283047Y-120848380D01*
X168473523Y-119848380D02*
X168664000Y-119848380D01*
X168759238Y-119896000D01*
X168854476Y-119991238D01*
X168902095Y-120181714D01*
X168902095Y-120515047D01*
X168854476Y-120705523D01*
X168759238Y-120800761D01*
X168664000Y-120848380D01*
X168473523Y-120848380D01*
X168378285Y-120800761D01*
X168283047Y-120705523D01*
X168235428Y-120515047D01*
X168235428Y-120181714D01*
X168283047Y-119991238D01*
X168378285Y-119896000D01*
X168473523Y-119848380D01*
X169235428Y-119848380D02*
X169473523Y-120848380D01*
X169664000Y-120134095D01*
X169854476Y-120848380D01*
X170092571Y-119848380D01*
X170473523Y-120848380D02*
X170473523Y-119848380D01*
X171044952Y-120848380D01*
X171044952Y-119848380D01*
X157456285Y-119848380D02*
X157456285Y-120657904D01*
X157503904Y-120753142D01*
X157551523Y-120800761D01*
X157646761Y-120848380D01*
X157837238Y-120848380D01*
X157932476Y-120800761D01*
X157980095Y-120753142D01*
X158027714Y-120657904D01*
X158027714Y-119848380D01*
X158503904Y-120848380D02*
X158503904Y-119848380D01*
X158884857Y-119848380D01*
X158980095Y-119896000D01*
X159027714Y-119943619D01*
X159075333Y-120038857D01*
X159075333Y-120181714D01*
X159027714Y-120276952D01*
X158980095Y-120324571D01*
X158884857Y-120372190D01*
X158503904Y-120372190D01*
X126573595Y-90750380D02*
X126573595Y-89750380D01*
X126906928Y-90464666D01*
X127240261Y-89750380D01*
X127240261Y-90750380D01*
X127716452Y-90750380D02*
X127716452Y-89750380D01*
X128145023Y-90702761D02*
X128287880Y-90750380D01*
X128525976Y-90750380D01*
X128621214Y-90702761D01*
X128668833Y-90655142D01*
X128716452Y-90559904D01*
X128716452Y-90464666D01*
X128668833Y-90369428D01*
X128621214Y-90321809D01*
X128525976Y-90274190D01*
X128335500Y-90226571D01*
X128240261Y-90178952D01*
X128192642Y-90131333D01*
X128145023Y-90036095D01*
X128145023Y-89940857D01*
X128192642Y-89845619D01*
X128240261Y-89798000D01*
X128335500Y-89750380D01*
X128573595Y-89750380D01*
X128716452Y-89798000D01*
X129335500Y-89750380D02*
X129525976Y-89750380D01*
X129621214Y-89798000D01*
X129716452Y-89893238D01*
X129764071Y-90083714D01*
X129764071Y-90417047D01*
X129716452Y-90607523D01*
X129621214Y-90702761D01*
X129525976Y-90750380D01*
X129335500Y-90750380D01*
X129240261Y-90702761D01*
X129145023Y-90607523D01*
X129097404Y-90417047D01*
X129097404Y-90083714D01*
X129145023Y-89893238D01*
X129240261Y-89798000D01*
X129335500Y-89750380D01*
X130811690Y-89750380D02*
X131145023Y-90750380D01*
X131478357Y-89750380D01*
X132383119Y-90655142D02*
X132335500Y-90702761D01*
X132192642Y-90750380D01*
X132097404Y-90750380D01*
X131954547Y-90702761D01*
X131859309Y-90607523D01*
X131811690Y-90512285D01*
X131764071Y-90321809D01*
X131764071Y-90178952D01*
X131811690Y-89988476D01*
X131859309Y-89893238D01*
X131954547Y-89798000D01*
X132097404Y-89750380D01*
X132192642Y-89750380D01*
X132335500Y-89798000D01*
X132383119Y-89845619D01*
X133383119Y-90655142D02*
X133335500Y-90702761D01*
X133192642Y-90750380D01*
X133097404Y-90750380D01*
X132954547Y-90702761D01*
X132859309Y-90607523D01*
X132811690Y-90512285D01*
X132764071Y-90321809D01*
X132764071Y-90178952D01*
X132811690Y-89988476D01*
X132859309Y-89893238D01*
X132954547Y-89798000D01*
X133097404Y-89750380D01*
X133192642Y-89750380D01*
X133335500Y-89798000D01*
X133383119Y-89845619D01*
X127145023Y-92305142D02*
X127097404Y-92352761D01*
X126954547Y-92400380D01*
X126859309Y-92400380D01*
X126716452Y-92352761D01*
X126621214Y-92257523D01*
X126573595Y-92162285D01*
X126525976Y-91971809D01*
X126525976Y-91828952D01*
X126573595Y-91638476D01*
X126621214Y-91543238D01*
X126716452Y-91448000D01*
X126859309Y-91400380D01*
X126954547Y-91400380D01*
X127097404Y-91448000D01*
X127145023Y-91495619D01*
X128049785Y-92400380D02*
X127573595Y-92400380D01*
X127573595Y-91400380D01*
X128383119Y-92400380D02*
X128383119Y-91400380D01*
X128954547Y-92400380D02*
X128525976Y-91828952D01*
X128954547Y-91400380D02*
X128383119Y-91971809D01*
X130145023Y-92400380D02*
X130145023Y-91400380D01*
X130478357Y-92114666D01*
X130811690Y-91400380D01*
X130811690Y-92400380D01*
X131478357Y-91400380D02*
X131668833Y-91400380D01*
X131764071Y-91448000D01*
X131859309Y-91543238D01*
X131906928Y-91733714D01*
X131906928Y-92067047D01*
X131859309Y-92257523D01*
X131764071Y-92352761D01*
X131668833Y-92400380D01*
X131478357Y-92400380D01*
X131383119Y-92352761D01*
X131287880Y-92257523D01*
X131240261Y-92067047D01*
X131240261Y-91733714D01*
X131287880Y-91543238D01*
X131383119Y-91448000D01*
X131478357Y-91400380D01*
X132287880Y-92352761D02*
X132430738Y-92400380D01*
X132668833Y-92400380D01*
X132764071Y-92352761D01*
X132811690Y-92305142D01*
X132859309Y-92209904D01*
X132859309Y-92114666D01*
X132811690Y-92019428D01*
X132764071Y-91971809D01*
X132668833Y-91924190D01*
X132478357Y-91876571D01*
X132383119Y-91828952D01*
X132335500Y-91781333D01*
X132287880Y-91686095D01*
X132287880Y-91590857D01*
X132335500Y-91495619D01*
X132383119Y-91448000D01*
X132478357Y-91400380D01*
X132716452Y-91400380D01*
X132859309Y-91448000D01*
X133287880Y-92400380D02*
X133287880Y-91400380D01*
X127145023Y-94050380D02*
X126811690Y-93574190D01*
X126573595Y-94050380D02*
X126573595Y-93050380D01*
X126954547Y-93050380D01*
X127049785Y-93098000D01*
X127097404Y-93145619D01*
X127145023Y-93240857D01*
X127145023Y-93383714D01*
X127097404Y-93478952D01*
X127049785Y-93526571D01*
X126954547Y-93574190D01*
X126573595Y-93574190D01*
X127525976Y-94002761D02*
X127668833Y-94050380D01*
X127906928Y-94050380D01*
X128002166Y-94002761D01*
X128049785Y-93955142D01*
X128097404Y-93859904D01*
X128097404Y-93764666D01*
X128049785Y-93669428D01*
X128002166Y-93621809D01*
X127906928Y-93574190D01*
X127716452Y-93526571D01*
X127621214Y-93478952D01*
X127573595Y-93431333D01*
X127525976Y-93336095D01*
X127525976Y-93240857D01*
X127573595Y-93145619D01*
X127621214Y-93098000D01*
X127716452Y-93050380D01*
X127954547Y-93050380D01*
X128097404Y-93098000D01*
X128383119Y-93050380D02*
X128954547Y-93050380D01*
X128668833Y-94050380D02*
X128668833Y-93050380D01*
X131335500Y-93098000D02*
X131240261Y-93050380D01*
X131097404Y-93050380D01*
X130954547Y-93098000D01*
X130859309Y-93193238D01*
X130811690Y-93288476D01*
X130764071Y-93478952D01*
X130764071Y-93621809D01*
X130811690Y-93812285D01*
X130859309Y-93907523D01*
X130954547Y-94002761D01*
X131097404Y-94050380D01*
X131192642Y-94050380D01*
X131335500Y-94002761D01*
X131383119Y-93955142D01*
X131383119Y-93621809D01*
X131192642Y-93621809D01*
X131811690Y-94050380D02*
X131811690Y-93050380D01*
X132383119Y-94050380D01*
X132383119Y-93050380D01*
X132859309Y-94050380D02*
X132859309Y-93050380D01*
X133097404Y-93050380D01*
X133240261Y-93098000D01*
X133335500Y-93193238D01*
X133383119Y-93288476D01*
X133430738Y-93478952D01*
X133430738Y-93621809D01*
X133383119Y-93812285D01*
X133335500Y-93907523D01*
X133240261Y-94002761D01*
X133097404Y-94050380D01*
X132859309Y-94050380D01*
D11*
X149524000Y-86414000D02*
X149924000Y-86414000D01*
X149524000Y-85774000D02*
X149524000Y-86414000D01*
X155544000Y-79434000D02*
X155544000Y-86174000D01*
X149764000Y-79434000D02*
X149764000Y-86174000D01*
X149764000Y-86174000D02*
X155544000Y-86174000D01*
X149764000Y-79434000D02*
X155544000Y-79434000D01*
X149764000Y-80554000D02*
X155544000Y-80554000D01*
X149764000Y-85654000D02*
X155544000Y-85654000D01*
X194060000Y-94056800D02*
G75*
G03X194060000Y-94056800I-6100000J0D01*
G01*
X127395000Y-104511800D02*
X128725000Y-104511800D01*
X127395000Y-105841800D02*
X127395000Y-104511800D01*
X127395000Y-107111800D02*
X130055000Y-107111800D01*
X130055000Y-107111800D02*
X130055000Y-114791800D01*
X127395000Y-107111800D02*
X127395000Y-114791800D01*
X127395000Y-114791800D02*
X130055000Y-114791800D01*
X144005000Y-101320000D02*
X152240000Y-101320000D01*
X144005000Y-96800000D02*
X144005000Y-101320000D01*
X152240000Y-96800000D02*
X144005000Y-96800000D01*
X187656400Y-110415548D02*
X187656400Y-110938052D01*
X189076400Y-110415548D02*
X189076400Y-110938052D01*
X173686400Y-110415548D02*
X173686400Y-110938052D01*
X175106400Y-110415548D02*
X175106400Y-110938052D01*
X160351400Y-110415548D02*
X160351400Y-110938052D01*
X161771400Y-110415548D02*
X161771400Y-110938052D01*
X174270600Y-123360548D02*
X174270600Y-123883052D01*
X175690600Y-123360548D02*
X175690600Y-123883052D01*
X163094600Y-123350748D02*
X163094600Y-123873252D01*
X164514600Y-123350748D02*
X164514600Y-123873252D01*
X148074748Y-103580000D02*
X148597252Y-103580000D01*
X148074748Y-102160000D02*
X148597252Y-102160000D01*
X141654000Y-123401548D02*
X141654000Y-123924052D01*
X143074000Y-123401548D02*
X143074000Y-123924052D01*
X151893200Y-123401548D02*
X151893200Y-123924052D01*
X153313200Y-123401548D02*
X153313200Y-123924052D01*
X134694400Y-123401548D02*
X134694400Y-123924052D01*
X136114400Y-123401548D02*
X136114400Y-123924052D01*
X182651400Y-109036800D02*
X179201400Y-109036800D01*
X182651400Y-109036800D02*
X184601400Y-109036800D01*
X182651400Y-119156800D02*
X180701400Y-119156800D01*
X182651400Y-119156800D02*
X184601400Y-119156800D01*
X169396400Y-109036800D02*
X165946400Y-109036800D01*
X169396400Y-109036800D02*
X171346400Y-109036800D01*
X169396400Y-119156800D02*
X167446400Y-119156800D01*
X169396400Y-119156800D02*
X171346400Y-119156800D01*
X155981400Y-109036800D02*
X152531400Y-109036800D01*
X155981400Y-109036800D02*
X157931400Y-109036800D01*
X155981400Y-119156800D02*
X154031400Y-119156800D01*
X155981400Y-119156800D02*
X157931400Y-119156800D01*
X151033600Y-89054400D02*
X151033600Y-90514400D01*
X147873600Y-89054400D02*
X147873600Y-91214400D01*
X147873600Y-89054400D02*
X148803600Y-89054400D01*
X151033600Y-89054400D02*
X150103600Y-89054400D01*
X136534200Y-120862800D02*
X136534200Y-126462800D01*
X141234200Y-120862800D02*
X136534200Y-120862800D01*
X173826400Y-99116800D02*
X173826400Y-94056800D01*
X180966400Y-88996800D02*
X180966400Y-99116800D01*
X165826400Y-99141800D02*
X165826400Y-94081800D01*
X172966400Y-89021800D02*
X172966400Y-99141800D01*
X157826400Y-99166800D02*
X157826400Y-94106800D01*
X164966400Y-89046800D02*
X164966400Y-99166800D01*
X138801000Y-106551800D02*
X136986000Y-106551800D01*
X138801000Y-106316800D02*
X138801000Y-106551800D01*
X142661000Y-106316800D02*
X138801000Y-106316800D01*
X146521000Y-106316800D02*
X146521000Y-106551800D01*
X142661000Y-106316800D02*
X146521000Y-106316800D01*
X138801000Y-119336800D02*
X138801000Y-119101800D01*
X142661000Y-119336800D02*
X138801000Y-119336800D01*
X146521000Y-119336800D02*
X146521000Y-119101800D01*
X142661000Y-119336800D02*
X146521000Y-119336800D01*
X177393200Y-121937000D02*
X177393200Y-121487000D01*
X183693200Y-121487000D02*
X183693200Y-121937000D01*
X177393200Y-121487000D02*
X183693200Y-121487000D01*
X183693200Y-123237000D02*
X183693200Y-125937000D01*
X177393200Y-125937000D02*
X177393200Y-123237000D01*
X183693200Y-127687000D02*
X183693200Y-127287000D01*
X177393200Y-127687000D02*
X183693200Y-127687000D01*
X177393200Y-127237000D02*
X177393200Y-127687000D01*
X166246400Y-121937000D02*
X166246400Y-121487000D01*
X172546400Y-121487000D02*
X172546400Y-121937000D01*
X166246400Y-121487000D02*
X172546400Y-121487000D01*
X172546400Y-123237000D02*
X172546400Y-125937000D01*
X166246400Y-125937000D02*
X166246400Y-123237000D01*
X172546400Y-127687000D02*
X172546400Y-127287000D01*
X166246400Y-127687000D02*
X172546400Y-127687000D01*
X166246400Y-127237000D02*
X166246400Y-127687000D01*
X155041200Y-121987800D02*
X155041200Y-121537800D01*
X161341200Y-121537800D02*
X161341200Y-121987800D01*
X155041200Y-121537800D02*
X161341200Y-121537800D01*
X161341200Y-123287800D02*
X161341200Y-125987800D01*
X155041200Y-125987800D02*
X155041200Y-123287800D01*
X161341200Y-127737800D02*
X161341200Y-127337800D01*
X155041200Y-127737800D02*
X161341200Y-127737800D01*
X155041200Y-127287800D02*
X155041200Y-127737800D01*
X140971200Y-95039548D02*
X140971200Y-95562052D01*
X142391200Y-95039548D02*
X142391200Y-95562052D01*
X149046000Y-94139652D02*
X149046000Y-93617148D01*
X147626000Y-94139652D02*
X147626000Y-93617148D01*
X151179600Y-94139652D02*
X151179600Y-93617148D01*
X149759600Y-94139652D02*
X149759600Y-93617148D01*
X179566400Y-103470548D02*
X179566400Y-103993052D01*
X180986400Y-103470548D02*
X180986400Y-103993052D01*
X175226400Y-84513052D02*
X175226400Y-83990548D01*
X173806400Y-84513052D02*
X173806400Y-83990548D01*
X177146400Y-84513052D02*
X177146400Y-83990548D01*
X175726400Y-84513052D02*
X175726400Y-83990548D01*
X173806400Y-103470548D02*
X173806400Y-103993052D01*
X175226400Y-103470548D02*
X175226400Y-103993052D01*
X175726400Y-103470548D02*
X175726400Y-103993052D01*
X177146400Y-103470548D02*
X177146400Y-103993052D01*
X177646400Y-103470548D02*
X177646400Y-103993052D01*
X179066400Y-103470548D02*
X179066400Y-103993052D01*
X180986400Y-84513052D02*
X180986400Y-83990548D01*
X179566400Y-84513052D02*
X179566400Y-83990548D01*
X179066400Y-84513052D02*
X179066400Y-83990548D01*
X177646400Y-84513052D02*
X177646400Y-83990548D01*
X171566400Y-103470548D02*
X171566400Y-103993052D01*
X172986400Y-103470548D02*
X172986400Y-103993052D01*
X167226400Y-84513052D02*
X167226400Y-83990548D01*
X165806400Y-84513052D02*
X165806400Y-83990548D01*
X169146400Y-84543052D02*
X169146400Y-84020548D01*
X167726400Y-84543052D02*
X167726400Y-84020548D01*
X165806400Y-103470548D02*
X165806400Y-103993052D01*
X167226400Y-103470548D02*
X167226400Y-103993052D01*
X167726400Y-103470548D02*
X167726400Y-103993052D01*
X169146400Y-103470548D02*
X169146400Y-103993052D01*
X169646400Y-103470548D02*
X169646400Y-103993052D01*
X171066400Y-103470548D02*
X171066400Y-103993052D01*
X172986400Y-84513052D02*
X172986400Y-83990548D01*
X171566400Y-84513052D02*
X171566400Y-83990548D01*
X171066400Y-84543052D02*
X171066400Y-84020548D01*
X169646400Y-84543052D02*
X169646400Y-84020548D01*
X163566400Y-103470548D02*
X163566400Y-103993052D01*
X164986400Y-103470548D02*
X164986400Y-103993052D01*
X159226400Y-84543052D02*
X159226400Y-84020548D01*
X157806400Y-84543052D02*
X157806400Y-84020548D01*
X161146400Y-84543052D02*
X161146400Y-84020548D01*
X159726400Y-84543052D02*
X159726400Y-84020548D01*
X157806400Y-103470548D02*
X157806400Y-103993052D01*
X159226400Y-103470548D02*
X159226400Y-103993052D01*
X159726400Y-103470548D02*
X159726400Y-103993052D01*
X161146400Y-103470548D02*
X161146400Y-103993052D01*
X161646400Y-103470548D02*
X161646400Y-103993052D01*
X163066400Y-103470548D02*
X163066400Y-103993052D01*
X164986400Y-84543052D02*
X164986400Y-84020548D01*
X163566400Y-84543052D02*
X163566400Y-84020548D01*
X163066400Y-84543052D02*
X163066400Y-84020548D01*
X161646400Y-84543052D02*
X161646400Y-84020548D01*
X190981400Y-110938052D02*
X190981400Y-110415548D01*
X189561400Y-110938052D02*
X189561400Y-110415548D01*
X175591400Y-110415548D02*
X175591400Y-110938052D01*
X177011400Y-110415548D02*
X177011400Y-110938052D01*
X162256400Y-110415548D02*
X162256400Y-110938052D01*
X163676400Y-110415548D02*
X163676400Y-110938052D01*
X145645970Y-123924052D02*
X145645970Y-123401548D01*
X144225970Y-123924052D02*
X144225970Y-123401548D01*
X147699800Y-123924052D02*
X147699800Y-123401548D01*
X146279800Y-123924052D02*
X146279800Y-123401548D01*
X139326252Y-104319000D02*
X138803748Y-104319000D01*
X139326252Y-105739000D02*
X138803748Y-105739000D01*
X149808000Y-123924052D02*
X149808000Y-123401548D01*
X148388000Y-123924052D02*
X148388000Y-123401548D01*
X127395000Y-95215400D02*
X128725000Y-95215400D01*
X127395000Y-96545400D02*
X127395000Y-95215400D01*
X129995000Y-95215400D02*
X132595000Y-95215400D01*
X129995000Y-97815400D02*
X129995000Y-95215400D01*
X127395000Y-97815400D02*
X129995000Y-97815400D01*
X132595000Y-95215400D02*
X132595000Y-102955400D01*
X127395000Y-97815400D02*
X127395000Y-102955400D01*
X127395000Y-102955400D02*
X132595000Y-102955400D01*
X146214401Y-90866800D02*
X143614401Y-90866800D01*
X146214401Y-76166800D02*
X146214401Y-90866800D01*
X137014401Y-90866800D02*
X137014401Y-88966800D01*
X139714401Y-90866800D02*
X137014401Y-90866800D01*
X137014401Y-76166800D02*
X146214401Y-76166800D01*
X137014401Y-84966800D02*
X137014401Y-76166800D01*
X146414401Y-90016800D02*
X146414401Y-91066800D01*
X145364401Y-91066800D02*
X146414401Y-91066800D01*
X138531200Y-93440800D02*
X138531200Y-96300800D01*
X140451200Y-93440800D02*
X138531200Y-93440800D01*
X140451200Y-96300800D02*
X140451200Y-93440800D01*
D10*
X187206047Y-93908571D02*
X187348904Y-93956190D01*
X187396523Y-94003809D01*
X187444142Y-94099047D01*
X187444142Y-94241904D01*
X187396523Y-94337142D01*
X187348904Y-94384761D01*
X187253666Y-94432380D01*
X186872714Y-94432380D01*
X186872714Y-93432380D01*
X187206047Y-93432380D01*
X187301285Y-93480000D01*
X187348904Y-93527619D01*
X187396523Y-93622857D01*
X187396523Y-93718095D01*
X187348904Y-93813333D01*
X187301285Y-93860952D01*
X187206047Y-93908571D01*
X186872714Y-93908571D01*
X187777476Y-93432380D02*
X188444142Y-93432380D01*
X187777476Y-94432380D01*
X188444142Y-94432380D01*
X189348904Y-94432380D02*
X188777476Y-94432380D01*
X189063190Y-94432380D02*
X189063190Y-93432380D01*
X188967952Y-93575238D01*
X188872714Y-93670476D01*
X188777476Y-93718095D01*
X185491428Y-98247752D02*
X185491428Y-97485847D01*
X185872380Y-97866800D02*
X185110476Y-97866800D01*
X155170142Y-99702857D02*
X155217761Y-99750476D01*
X155265380Y-99893333D01*
X155265380Y-99988571D01*
X155217761Y-100131428D01*
X155122523Y-100226666D01*
X155027285Y-100274285D01*
X154836809Y-100321904D01*
X154693952Y-100321904D01*
X154503476Y-100274285D01*
X154408238Y-100226666D01*
X154313000Y-100131428D01*
X154265380Y-99988571D01*
X154265380Y-99893333D01*
X154313000Y-99750476D01*
X154360619Y-99702857D01*
X155265380Y-98750476D02*
X155265380Y-99321904D01*
X155265380Y-99036190D02*
X154265380Y-99036190D01*
X154408238Y-99131428D01*
X154503476Y-99226666D01*
X154551095Y-99321904D01*
X154265380Y-98131428D02*
X154265380Y-98036190D01*
X154313000Y-97940952D01*
X154360619Y-97893333D01*
X154455857Y-97845714D01*
X154646333Y-97798095D01*
X154884428Y-97798095D01*
X155074904Y-97845714D01*
X155170142Y-97893333D01*
X155217761Y-97940952D01*
X155265380Y-98036190D01*
X155265380Y-98131428D01*
X155217761Y-98226666D01*
X155170142Y-98274285D01*
X155074904Y-98321904D01*
X154884428Y-98369523D01*
X154646333Y-98369523D01*
X154455857Y-98321904D01*
X154360619Y-98274285D01*
X154313000Y-98226666D01*
X154265380Y-98131428D01*
X188952142Y-114212666D02*
X188999761Y-114260285D01*
X189047380Y-114403142D01*
X189047380Y-114498380D01*
X188999761Y-114641238D01*
X188904523Y-114736476D01*
X188809285Y-114784095D01*
X188618809Y-114831714D01*
X188475952Y-114831714D01*
X188285476Y-114784095D01*
X188190238Y-114736476D01*
X188095000Y-114641238D01*
X188047380Y-114498380D01*
X188047380Y-114403142D01*
X188095000Y-114260285D01*
X188142619Y-114212666D01*
X189047380Y-113736476D02*
X189047380Y-113546000D01*
X188999761Y-113450761D01*
X188952142Y-113403142D01*
X188809285Y-113307904D01*
X188618809Y-113260285D01*
X188237857Y-113260285D01*
X188142619Y-113307904D01*
X188095000Y-113355523D01*
X188047380Y-113450761D01*
X188047380Y-113641238D01*
X188095000Y-113736476D01*
X188142619Y-113784095D01*
X188237857Y-113831714D01*
X188475952Y-113831714D01*
X188571190Y-113784095D01*
X188618809Y-113736476D01*
X188666428Y-113641238D01*
X188666428Y-113450761D01*
X188618809Y-113355523D01*
X188571190Y-113307904D01*
X188475952Y-113260285D01*
X174855142Y-114212666D02*
X174902761Y-114260285D01*
X174950380Y-114403142D01*
X174950380Y-114498380D01*
X174902761Y-114641238D01*
X174807523Y-114736476D01*
X174712285Y-114784095D01*
X174521809Y-114831714D01*
X174378952Y-114831714D01*
X174188476Y-114784095D01*
X174093238Y-114736476D01*
X173998000Y-114641238D01*
X173950380Y-114498380D01*
X173950380Y-114403142D01*
X173998000Y-114260285D01*
X174045619Y-114212666D01*
X174378952Y-113641238D02*
X174331333Y-113736476D01*
X174283714Y-113784095D01*
X174188476Y-113831714D01*
X174140857Y-113831714D01*
X174045619Y-113784095D01*
X173998000Y-113736476D01*
X173950380Y-113641238D01*
X173950380Y-113450761D01*
X173998000Y-113355523D01*
X174045619Y-113307904D01*
X174140857Y-113260285D01*
X174188476Y-113260285D01*
X174283714Y-113307904D01*
X174331333Y-113355523D01*
X174378952Y-113450761D01*
X174378952Y-113641238D01*
X174426571Y-113736476D01*
X174474190Y-113784095D01*
X174569428Y-113831714D01*
X174759904Y-113831714D01*
X174855142Y-113784095D01*
X174902761Y-113736476D01*
X174950380Y-113641238D01*
X174950380Y-113450761D01*
X174902761Y-113355523D01*
X174855142Y-113307904D01*
X174759904Y-113260285D01*
X174569428Y-113260285D01*
X174474190Y-113307904D01*
X174426571Y-113355523D01*
X174378952Y-113450761D01*
X161393142Y-113958666D02*
X161440761Y-114006285D01*
X161488380Y-114149142D01*
X161488380Y-114244380D01*
X161440761Y-114387238D01*
X161345523Y-114482476D01*
X161250285Y-114530095D01*
X161059809Y-114577714D01*
X160916952Y-114577714D01*
X160726476Y-114530095D01*
X160631238Y-114482476D01*
X160536000Y-114387238D01*
X160488380Y-114244380D01*
X160488380Y-114149142D01*
X160536000Y-114006285D01*
X160583619Y-113958666D01*
X160488380Y-113625333D02*
X160488380Y-112958666D01*
X161488380Y-113387238D01*
X175363142Y-127166666D02*
X175410761Y-127214285D01*
X175458380Y-127357142D01*
X175458380Y-127452380D01*
X175410761Y-127595238D01*
X175315523Y-127690476D01*
X175220285Y-127738095D01*
X175029809Y-127785714D01*
X174886952Y-127785714D01*
X174696476Y-127738095D01*
X174601238Y-127690476D01*
X174506000Y-127595238D01*
X174458380Y-127452380D01*
X174458380Y-127357142D01*
X174506000Y-127214285D01*
X174553619Y-127166666D01*
X174458380Y-126309523D02*
X174458380Y-126500000D01*
X174506000Y-126595238D01*
X174553619Y-126642857D01*
X174696476Y-126738095D01*
X174886952Y-126785714D01*
X175267904Y-126785714D01*
X175363142Y-126738095D01*
X175410761Y-126690476D01*
X175458380Y-126595238D01*
X175458380Y-126404761D01*
X175410761Y-126309523D01*
X175363142Y-126261904D01*
X175267904Y-126214285D01*
X175029809Y-126214285D01*
X174934571Y-126261904D01*
X174886952Y-126309523D01*
X174839333Y-126404761D01*
X174839333Y-126595238D01*
X174886952Y-126690476D01*
X174934571Y-126738095D01*
X175029809Y-126785714D01*
X164187142Y-127166666D02*
X164234761Y-127214285D01*
X164282380Y-127357142D01*
X164282380Y-127452380D01*
X164234761Y-127595238D01*
X164139523Y-127690476D01*
X164044285Y-127738095D01*
X163853809Y-127785714D01*
X163710952Y-127785714D01*
X163520476Y-127738095D01*
X163425238Y-127690476D01*
X163330000Y-127595238D01*
X163282380Y-127452380D01*
X163282380Y-127357142D01*
X163330000Y-127214285D01*
X163377619Y-127166666D01*
X163282380Y-126261904D02*
X163282380Y-126738095D01*
X163758571Y-126785714D01*
X163710952Y-126738095D01*
X163663333Y-126642857D01*
X163663333Y-126404761D01*
X163710952Y-126309523D01*
X163758571Y-126261904D01*
X163853809Y-126214285D01*
X164091904Y-126214285D01*
X164187142Y-126261904D01*
X164234761Y-126309523D01*
X164282380Y-126404761D01*
X164282380Y-126642857D01*
X164234761Y-126738095D01*
X164187142Y-126785714D01*
X151217333Y-103227142D02*
X151169714Y-103274761D01*
X151026857Y-103322380D01*
X150931619Y-103322380D01*
X150788761Y-103274761D01*
X150693523Y-103179523D01*
X150645904Y-103084285D01*
X150598285Y-102893809D01*
X150598285Y-102750952D01*
X150645904Y-102560476D01*
X150693523Y-102465238D01*
X150788761Y-102370000D01*
X150931619Y-102322380D01*
X151026857Y-102322380D01*
X151169714Y-102370000D01*
X151217333Y-102417619D01*
X152074476Y-102655714D02*
X152074476Y-103322380D01*
X151836380Y-102274761D02*
X151598285Y-102989047D01*
X152217333Y-102989047D01*
X142851142Y-126952666D02*
X142898761Y-127000285D01*
X142946380Y-127143142D01*
X142946380Y-127238380D01*
X142898761Y-127381238D01*
X142803523Y-127476476D01*
X142708285Y-127524095D01*
X142517809Y-127571714D01*
X142374952Y-127571714D01*
X142184476Y-127524095D01*
X142089238Y-127476476D01*
X141994000Y-127381238D01*
X141946380Y-127238380D01*
X141946380Y-127143142D01*
X141994000Y-127000285D01*
X142041619Y-126952666D01*
X141946380Y-126619333D02*
X141946380Y-126000285D01*
X142327333Y-126333619D01*
X142327333Y-126190761D01*
X142374952Y-126095523D01*
X142422571Y-126047904D01*
X142517809Y-126000285D01*
X142755904Y-126000285D01*
X142851142Y-126047904D01*
X142898761Y-126095523D01*
X142946380Y-126190761D01*
X142946380Y-126476476D01*
X142898761Y-126571714D01*
X142851142Y-126619333D01*
X153011142Y-126912666D02*
X153058761Y-126960285D01*
X153106380Y-127103142D01*
X153106380Y-127198380D01*
X153058761Y-127341238D01*
X152963523Y-127436476D01*
X152868285Y-127484095D01*
X152677809Y-127531714D01*
X152534952Y-127531714D01*
X152344476Y-127484095D01*
X152249238Y-127436476D01*
X152154000Y-127341238D01*
X152106380Y-127198380D01*
X152106380Y-127103142D01*
X152154000Y-126960285D01*
X152201619Y-126912666D01*
X152201619Y-126531714D02*
X152154000Y-126484095D01*
X152106380Y-126388857D01*
X152106380Y-126150761D01*
X152154000Y-126055523D01*
X152201619Y-126007904D01*
X152296857Y-125960285D01*
X152392095Y-125960285D01*
X152534952Y-126007904D01*
X153106380Y-126579333D01*
X153106380Y-125960285D01*
X135739142Y-126952666D02*
X135786761Y-127000285D01*
X135834380Y-127143142D01*
X135834380Y-127238380D01*
X135786761Y-127381238D01*
X135691523Y-127476476D01*
X135596285Y-127524095D01*
X135405809Y-127571714D01*
X135262952Y-127571714D01*
X135072476Y-127524095D01*
X134977238Y-127476476D01*
X134882000Y-127381238D01*
X134834380Y-127238380D01*
X134834380Y-127143142D01*
X134882000Y-127000285D01*
X134929619Y-126952666D01*
X135834380Y-126000285D02*
X135834380Y-126571714D01*
X135834380Y-126286000D02*
X134834380Y-126286000D01*
X134977238Y-126381238D01*
X135072476Y-126476476D01*
X135120095Y-126571714D01*
X181864095Y-113244380D02*
X181864095Y-114053904D01*
X181911714Y-114149142D01*
X181959333Y-114196761D01*
X182054571Y-114244380D01*
X182245047Y-114244380D01*
X182340285Y-114196761D01*
X182387904Y-114149142D01*
X182435523Y-114053904D01*
X182435523Y-113244380D01*
X183340285Y-113577714D02*
X183340285Y-114244380D01*
X183102190Y-113196761D02*
X182864095Y-113911047D01*
X183483142Y-113911047D01*
X168634495Y-113498380D02*
X168634495Y-114307904D01*
X168682114Y-114403142D01*
X168729733Y-114450761D01*
X168824971Y-114498380D01*
X169015447Y-114498380D01*
X169110685Y-114450761D01*
X169158304Y-114403142D01*
X169205923Y-114307904D01*
X169205923Y-113498380D01*
X169586876Y-113498380D02*
X170205923Y-113498380D01*
X169872590Y-113879333D01*
X170015447Y-113879333D01*
X170110685Y-113926952D01*
X170158304Y-113974571D01*
X170205923Y-114069809D01*
X170205923Y-114307904D01*
X170158304Y-114403142D01*
X170110685Y-114450761D01*
X170015447Y-114498380D01*
X169729733Y-114498380D01*
X169634495Y-114450761D01*
X169586876Y-114403142D01*
X155448095Y-113244380D02*
X155448095Y-114053904D01*
X155495714Y-114149142D01*
X155543333Y-114196761D01*
X155638571Y-114244380D01*
X155829047Y-114244380D01*
X155924285Y-114196761D01*
X155971904Y-114149142D01*
X156019523Y-114053904D01*
X156019523Y-113244380D01*
X156448095Y-113339619D02*
X156495714Y-113292000D01*
X156590952Y-113244380D01*
X156829047Y-113244380D01*
X156924285Y-113292000D01*
X156971904Y-113339619D01*
X157019523Y-113434857D01*
X157019523Y-113530095D01*
X156971904Y-113672952D01*
X156400476Y-114244380D01*
X157019523Y-114244380D01*
X152947619Y-90265238D02*
X152900000Y-90360476D01*
X152804761Y-90455714D01*
X152661904Y-90598571D01*
X152614285Y-90693809D01*
X152614285Y-90789047D01*
X152852380Y-90741428D02*
X152804761Y-90836666D01*
X152709523Y-90931904D01*
X152519047Y-90979523D01*
X152185714Y-90979523D01*
X151995238Y-90931904D01*
X151900000Y-90836666D01*
X151852380Y-90741428D01*
X151852380Y-90550952D01*
X151900000Y-90455714D01*
X151995238Y-90360476D01*
X152185714Y-90312857D01*
X152519047Y-90312857D01*
X152709523Y-90360476D01*
X152804761Y-90455714D01*
X152852380Y-90550952D01*
X152852380Y-90741428D01*
X152852380Y-89360476D02*
X152852380Y-89931904D01*
X152852380Y-89646190D02*
X151852380Y-89646190D01*
X151995238Y-89741428D01*
X152090476Y-89836666D01*
X152138095Y-89931904D01*
X138461809Y-127270190D02*
X138461809Y-127746380D01*
X138128476Y-126746380D02*
X138461809Y-127270190D01*
X138795142Y-126746380D01*
X139652285Y-127746380D02*
X139080857Y-127746380D01*
X139366571Y-127746380D02*
X139366571Y-126746380D01*
X139271333Y-126889238D01*
X139176095Y-126984476D01*
X139080857Y-127032095D01*
X176530095Y-93686380D02*
X176530095Y-94495904D01*
X176577714Y-94591142D01*
X176625333Y-94638761D01*
X176720571Y-94686380D01*
X176911047Y-94686380D01*
X177006285Y-94638761D01*
X177053904Y-94591142D01*
X177101523Y-94495904D01*
X177101523Y-93686380D01*
X177482476Y-93686380D02*
X178149142Y-93686380D01*
X177720571Y-94686380D01*
X168656095Y-93432380D02*
X168656095Y-94241904D01*
X168703714Y-94337142D01*
X168751333Y-94384761D01*
X168846571Y-94432380D01*
X169037047Y-94432380D01*
X169132285Y-94384761D01*
X169179904Y-94337142D01*
X169227523Y-94241904D01*
X169227523Y-93432380D01*
X170132285Y-93432380D02*
X169941809Y-93432380D01*
X169846571Y-93480000D01*
X169798952Y-93527619D01*
X169703714Y-93670476D01*
X169656095Y-93860952D01*
X169656095Y-94241904D01*
X169703714Y-94337142D01*
X169751333Y-94384761D01*
X169846571Y-94432380D01*
X170037047Y-94432380D01*
X170132285Y-94384761D01*
X170179904Y-94337142D01*
X170227523Y-94241904D01*
X170227523Y-94003809D01*
X170179904Y-93908571D01*
X170132285Y-93860952D01*
X170037047Y-93813333D01*
X169846571Y-93813333D01*
X169751333Y-93860952D01*
X169703714Y-93908571D01*
X169656095Y-94003809D01*
X160782095Y-93432380D02*
X160782095Y-94241904D01*
X160829714Y-94337142D01*
X160877333Y-94384761D01*
X160972571Y-94432380D01*
X161163047Y-94432380D01*
X161258285Y-94384761D01*
X161305904Y-94337142D01*
X161353523Y-94241904D01*
X161353523Y-93432380D01*
X162305904Y-93432380D02*
X161829714Y-93432380D01*
X161782095Y-93908571D01*
X161829714Y-93860952D01*
X161924952Y-93813333D01*
X162163047Y-93813333D01*
X162258285Y-93860952D01*
X162305904Y-93908571D01*
X162353523Y-94003809D01*
X162353523Y-94241904D01*
X162305904Y-94337142D01*
X162258285Y-94384761D01*
X162163047Y-94432380D01*
X161924952Y-94432380D01*
X161829714Y-94384761D01*
X161782095Y-94337142D01*
X141899095Y-112228380D02*
X141899095Y-113037904D01*
X141946714Y-113133142D01*
X141994333Y-113180761D01*
X142089571Y-113228380D01*
X142280047Y-113228380D01*
X142375285Y-113180761D01*
X142422904Y-113133142D01*
X142470523Y-113037904D01*
X142470523Y-112228380D01*
X143470523Y-113228380D02*
X142899095Y-113228380D01*
X143184809Y-113228380D02*
X143184809Y-112228380D01*
X143089571Y-112371238D01*
X142994333Y-112466476D01*
X142899095Y-112514095D01*
X143962380Y-95943657D02*
X143486190Y-96276990D01*
X143962380Y-96515085D02*
X142962380Y-96515085D01*
X142962380Y-96134133D01*
X143010000Y-96038895D01*
X143057619Y-95991276D01*
X143152857Y-95943657D01*
X143295714Y-95943657D01*
X143390952Y-95991276D01*
X143438571Y-96038895D01*
X143486190Y-96134133D01*
X143486190Y-96515085D01*
X142962380Y-95610323D02*
X142962380Y-94991276D01*
X143343333Y-95324609D01*
X143343333Y-95181752D01*
X143390952Y-95086514D01*
X143438571Y-95038895D01*
X143533809Y-94991276D01*
X143771904Y-94991276D01*
X143867142Y-95038895D01*
X143914761Y-95086514D01*
X143962380Y-95181752D01*
X143962380Y-95467466D01*
X143914761Y-95562704D01*
X143867142Y-95610323D01*
X143295714Y-94134133D02*
X143962380Y-94134133D01*
X142914761Y-94372228D02*
X143629047Y-94610323D01*
X143629047Y-93991276D01*
X147138380Y-94521257D02*
X146662190Y-94854590D01*
X147138380Y-95092685D02*
X146138380Y-95092685D01*
X146138380Y-94711733D01*
X146186000Y-94616495D01*
X146233619Y-94568876D01*
X146328857Y-94521257D01*
X146471714Y-94521257D01*
X146566952Y-94568876D01*
X146614571Y-94616495D01*
X146662190Y-94711733D01*
X146662190Y-95092685D01*
X146138380Y-94187923D02*
X146138380Y-93568876D01*
X146519333Y-93902209D01*
X146519333Y-93759352D01*
X146566952Y-93664114D01*
X146614571Y-93616495D01*
X146709809Y-93568876D01*
X146947904Y-93568876D01*
X147043142Y-93616495D01*
X147090761Y-93664114D01*
X147138380Y-93759352D01*
X147138380Y-94045066D01*
X147090761Y-94140304D01*
X147043142Y-94187923D01*
X146138380Y-93235542D02*
X146138380Y-92616495D01*
X146519333Y-92949828D01*
X146519333Y-92806971D01*
X146566952Y-92711733D01*
X146614571Y-92664114D01*
X146709809Y-92616495D01*
X146947904Y-92616495D01*
X147043142Y-92664114D01*
X147090761Y-92711733D01*
X147138380Y-92806971D01*
X147138380Y-93092685D01*
X147090761Y-93187923D01*
X147043142Y-93235542D01*
X152852380Y-94521257D02*
X152376190Y-94854590D01*
X152852380Y-95092685D02*
X151852380Y-95092685D01*
X151852380Y-94711733D01*
X151900000Y-94616495D01*
X151947619Y-94568876D01*
X152042857Y-94521257D01*
X152185714Y-94521257D01*
X152280952Y-94568876D01*
X152328571Y-94616495D01*
X152376190Y-94711733D01*
X152376190Y-95092685D01*
X151852380Y-94187923D02*
X151852380Y-93568876D01*
X152233333Y-93902209D01*
X152233333Y-93759352D01*
X152280952Y-93664114D01*
X152328571Y-93616495D01*
X152423809Y-93568876D01*
X152661904Y-93568876D01*
X152757142Y-93616495D01*
X152804761Y-93664114D01*
X152852380Y-93759352D01*
X152852380Y-94045066D01*
X152804761Y-94140304D01*
X152757142Y-94187923D01*
X151947619Y-93187923D02*
X151900000Y-93140304D01*
X151852380Y-93045066D01*
X151852380Y-92806971D01*
X151900000Y-92711733D01*
X151947619Y-92664114D01*
X152042857Y-92616495D01*
X152138095Y-92616495D01*
X152280952Y-92664114D01*
X152852380Y-93235542D01*
X152852380Y-92616495D01*
X180792380Y-107830857D02*
X180316190Y-108164190D01*
X180792380Y-108402285D02*
X179792380Y-108402285D01*
X179792380Y-108021333D01*
X179840000Y-107926095D01*
X179887619Y-107878476D01*
X179982857Y-107830857D01*
X180125714Y-107830857D01*
X180220952Y-107878476D01*
X180268571Y-107926095D01*
X180316190Y-108021333D01*
X180316190Y-108402285D01*
X179792380Y-107497523D02*
X179792380Y-106878476D01*
X180173333Y-107211809D01*
X180173333Y-107068952D01*
X180220952Y-106973714D01*
X180268571Y-106926095D01*
X180363809Y-106878476D01*
X180601904Y-106878476D01*
X180697142Y-106926095D01*
X180744761Y-106973714D01*
X180792380Y-107068952D01*
X180792380Y-107354666D01*
X180744761Y-107449904D01*
X180697142Y-107497523D01*
X180792380Y-105926095D02*
X180792380Y-106497523D01*
X180792380Y-106211809D02*
X179792380Y-106211809D01*
X179935238Y-106307047D01*
X180030476Y-106402285D01*
X180078095Y-106497523D01*
X174363312Y-81800450D02*
X173790893Y-81699435D01*
X173959251Y-82204511D02*
X173252145Y-81497404D01*
X173521519Y-81228030D01*
X173622534Y-81194358D01*
X173689877Y-81194358D01*
X173790893Y-81228030D01*
X173891908Y-81329045D01*
X173925580Y-81430061D01*
X173925580Y-81497404D01*
X173891908Y-81598419D01*
X173622534Y-81867793D01*
X173891908Y-80857641D02*
X174329641Y-80419908D01*
X174363312Y-80924984D01*
X174464328Y-80823969D01*
X174565343Y-80790297D01*
X174632687Y-80790297D01*
X174733702Y-80823969D01*
X174902061Y-80992328D01*
X174935732Y-81093343D01*
X174935732Y-81160687D01*
X174902061Y-81261702D01*
X174700030Y-81463732D01*
X174599015Y-81497404D01*
X174531671Y-81497404D01*
X174767374Y-79982175D02*
X174834717Y-79914832D01*
X174935732Y-79881160D01*
X175003076Y-79881160D01*
X175104091Y-79914832D01*
X175272450Y-80015847D01*
X175440809Y-80184206D01*
X175541824Y-80352564D01*
X175575496Y-80453580D01*
X175575496Y-80520923D01*
X175541824Y-80621938D01*
X175474480Y-80689282D01*
X175373465Y-80722954D01*
X175306122Y-80722954D01*
X175205106Y-80689282D01*
X175036748Y-80588267D01*
X174868389Y-80419908D01*
X174767374Y-80251549D01*
X174733702Y-80150534D01*
X174733702Y-80083190D01*
X174767374Y-79982175D01*
X176395312Y-81800450D02*
X175822893Y-81699435D01*
X175991251Y-82204511D02*
X175284145Y-81497404D01*
X175553519Y-81228030D01*
X175654534Y-81194358D01*
X175721877Y-81194358D01*
X175822893Y-81228030D01*
X175923908Y-81329045D01*
X175957580Y-81430061D01*
X175957580Y-81497404D01*
X175923908Y-81598419D01*
X175654534Y-81867793D01*
X176024923Y-80891312D02*
X176024923Y-80823969D01*
X176058595Y-80722954D01*
X176226954Y-80554595D01*
X176327969Y-80520923D01*
X176395312Y-80520923D01*
X176496328Y-80554595D01*
X176563671Y-80621938D01*
X176631015Y-80756625D01*
X176631015Y-81564748D01*
X177068748Y-81127015D01*
X177405465Y-80790297D02*
X177540152Y-80655610D01*
X177573824Y-80554595D01*
X177573824Y-80487251D01*
X177540152Y-80318893D01*
X177439137Y-80150534D01*
X177169763Y-79881160D01*
X177068748Y-79847488D01*
X177001404Y-79847488D01*
X176900389Y-79881160D01*
X176765702Y-80015847D01*
X176732030Y-80116862D01*
X176732030Y-80184206D01*
X176765702Y-80285221D01*
X176934061Y-80453580D01*
X177035076Y-80487251D01*
X177102419Y-80487251D01*
X177203435Y-80453580D01*
X177338122Y-80318893D01*
X177371793Y-80217877D01*
X177371793Y-80150534D01*
X177338122Y-80049519D01*
X174950380Y-107830857D02*
X174474190Y-108164190D01*
X174950380Y-108402285D02*
X173950380Y-108402285D01*
X173950380Y-108021333D01*
X173998000Y-107926095D01*
X174045619Y-107878476D01*
X174140857Y-107830857D01*
X174283714Y-107830857D01*
X174378952Y-107878476D01*
X174426571Y-107926095D01*
X174474190Y-108021333D01*
X174474190Y-108402285D01*
X174045619Y-107449904D02*
X173998000Y-107402285D01*
X173950380Y-107307047D01*
X173950380Y-107068952D01*
X173998000Y-106973714D01*
X174045619Y-106926095D01*
X174140857Y-106878476D01*
X174236095Y-106878476D01*
X174378952Y-106926095D01*
X174950380Y-107497523D01*
X174950380Y-106878476D01*
X174378952Y-106307047D02*
X174331333Y-106402285D01*
X174283714Y-106449904D01*
X174188476Y-106497523D01*
X174140857Y-106497523D01*
X174045619Y-106449904D01*
X173998000Y-106402285D01*
X173950380Y-106307047D01*
X173950380Y-106116571D01*
X173998000Y-106021333D01*
X174045619Y-105973714D01*
X174140857Y-105926095D01*
X174188476Y-105926095D01*
X174283714Y-105973714D01*
X174331333Y-106021333D01*
X174378952Y-106116571D01*
X174378952Y-106307047D01*
X174426571Y-106402285D01*
X174474190Y-106449904D01*
X174569428Y-106497523D01*
X174759904Y-106497523D01*
X174855142Y-106449904D01*
X174902761Y-106402285D01*
X174950380Y-106307047D01*
X174950380Y-106116571D01*
X174902761Y-106021333D01*
X174855142Y-105973714D01*
X174759904Y-105926095D01*
X174569428Y-105926095D01*
X174474190Y-105973714D01*
X174426571Y-106021333D01*
X174378952Y-106116571D01*
X176982380Y-107830857D02*
X176506190Y-108164190D01*
X176982380Y-108402285D02*
X175982380Y-108402285D01*
X175982380Y-108021333D01*
X176030000Y-107926095D01*
X176077619Y-107878476D01*
X176172857Y-107830857D01*
X176315714Y-107830857D01*
X176410952Y-107878476D01*
X176458571Y-107926095D01*
X176506190Y-108021333D01*
X176506190Y-108402285D01*
X176077619Y-107449904D02*
X176030000Y-107402285D01*
X175982380Y-107307047D01*
X175982380Y-107068952D01*
X176030000Y-106973714D01*
X176077619Y-106926095D01*
X176172857Y-106878476D01*
X176268095Y-106878476D01*
X176410952Y-106926095D01*
X176982380Y-107497523D01*
X176982380Y-106878476D01*
X175982380Y-106545142D02*
X175982380Y-105878476D01*
X176982380Y-106307047D01*
X178760380Y-107830857D02*
X178284190Y-108164190D01*
X178760380Y-108402285D02*
X177760380Y-108402285D01*
X177760380Y-108021333D01*
X177808000Y-107926095D01*
X177855619Y-107878476D01*
X177950857Y-107830857D01*
X178093714Y-107830857D01*
X178188952Y-107878476D01*
X178236571Y-107926095D01*
X178284190Y-108021333D01*
X178284190Y-108402285D01*
X177855619Y-107449904D02*
X177808000Y-107402285D01*
X177760380Y-107307047D01*
X177760380Y-107068952D01*
X177808000Y-106973714D01*
X177855619Y-106926095D01*
X177950857Y-106878476D01*
X178046095Y-106878476D01*
X178188952Y-106926095D01*
X178760380Y-107497523D01*
X178760380Y-106878476D01*
X177760380Y-106021333D02*
X177760380Y-106211809D01*
X177808000Y-106307047D01*
X177855619Y-106354666D01*
X177998476Y-106449904D01*
X178188952Y-106497523D01*
X178569904Y-106497523D01*
X178665142Y-106449904D01*
X178712761Y-106402285D01*
X178760380Y-106307047D01*
X178760380Y-106116571D01*
X178712761Y-106021333D01*
X178665142Y-105973714D01*
X178569904Y-105926095D01*
X178331809Y-105926095D01*
X178236571Y-105973714D01*
X178188952Y-106021333D01*
X178141333Y-106116571D01*
X178141333Y-106307047D01*
X178188952Y-106402285D01*
X178236571Y-106449904D01*
X178331809Y-106497523D01*
X180205312Y-81800450D02*
X179632893Y-81699435D01*
X179801251Y-82204511D02*
X179094145Y-81497404D01*
X179363519Y-81228030D01*
X179464534Y-81194358D01*
X179531877Y-81194358D01*
X179632893Y-81228030D01*
X179733908Y-81329045D01*
X179767580Y-81430061D01*
X179767580Y-81497404D01*
X179733908Y-81598419D01*
X179464534Y-81867793D01*
X179834923Y-80891312D02*
X179834923Y-80823969D01*
X179868595Y-80722954D01*
X180036954Y-80554595D01*
X180137969Y-80520923D01*
X180205312Y-80520923D01*
X180306328Y-80554595D01*
X180373671Y-80621938D01*
X180441015Y-80756625D01*
X180441015Y-81564748D01*
X180878748Y-81127015D01*
X180811404Y-79780145D02*
X180474687Y-80116862D01*
X180777732Y-80487251D01*
X180777732Y-80419908D01*
X180811404Y-80318893D01*
X180979763Y-80150534D01*
X181080778Y-80116862D01*
X181148122Y-80116862D01*
X181249137Y-80150534D01*
X181417496Y-80318893D01*
X181451167Y-80419908D01*
X181451167Y-80487251D01*
X181417496Y-80588267D01*
X181249137Y-80756625D01*
X181148122Y-80790297D01*
X181080778Y-80790297D01*
X178173312Y-81800450D02*
X177600893Y-81699435D01*
X177769251Y-82204511D02*
X177062145Y-81497404D01*
X177331519Y-81228030D01*
X177432534Y-81194358D01*
X177499877Y-81194358D01*
X177600893Y-81228030D01*
X177701908Y-81329045D01*
X177735580Y-81430061D01*
X177735580Y-81497404D01*
X177701908Y-81598419D01*
X177432534Y-81867793D01*
X177802923Y-80891312D02*
X177802923Y-80823969D01*
X177836595Y-80722954D01*
X178004954Y-80554595D01*
X178105969Y-80520923D01*
X178173312Y-80520923D01*
X178274328Y-80554595D01*
X178341671Y-80621938D01*
X178409015Y-80756625D01*
X178409015Y-81564748D01*
X178846748Y-81127015D01*
X178981435Y-80049519D02*
X179452839Y-80520923D01*
X178543702Y-79948503D02*
X178880419Y-80621938D01*
X179318152Y-80184206D01*
X172664380Y-107830857D02*
X172188190Y-108164190D01*
X172664380Y-108402285D02*
X171664380Y-108402285D01*
X171664380Y-108021333D01*
X171712000Y-107926095D01*
X171759619Y-107878476D01*
X171854857Y-107830857D01*
X171997714Y-107830857D01*
X172092952Y-107878476D01*
X172140571Y-107926095D01*
X172188190Y-108021333D01*
X172188190Y-108402285D01*
X171759619Y-107449904D02*
X171712000Y-107402285D01*
X171664380Y-107307047D01*
X171664380Y-107068952D01*
X171712000Y-106973714D01*
X171759619Y-106926095D01*
X171854857Y-106878476D01*
X171950095Y-106878476D01*
X172092952Y-106926095D01*
X172664380Y-107497523D01*
X172664380Y-106878476D01*
X171664380Y-106545142D02*
X171664380Y-105926095D01*
X172045333Y-106259428D01*
X172045333Y-106116571D01*
X172092952Y-106021333D01*
X172140571Y-105973714D01*
X172235809Y-105926095D01*
X172473904Y-105926095D01*
X172569142Y-105973714D01*
X172616761Y-106021333D01*
X172664380Y-106116571D01*
X172664380Y-106402285D01*
X172616761Y-106497523D01*
X172569142Y-106545142D01*
X166489312Y-81800450D02*
X165916893Y-81699435D01*
X166085251Y-82204511D02*
X165378145Y-81497404D01*
X165647519Y-81228030D01*
X165748534Y-81194358D01*
X165815877Y-81194358D01*
X165916893Y-81228030D01*
X166017908Y-81329045D01*
X166051580Y-81430061D01*
X166051580Y-81497404D01*
X166017908Y-81598419D01*
X165748534Y-81867793D01*
X166118923Y-80891312D02*
X166118923Y-80823969D01*
X166152595Y-80722954D01*
X166320954Y-80554595D01*
X166421969Y-80520923D01*
X166489312Y-80520923D01*
X166590328Y-80554595D01*
X166657671Y-80621938D01*
X166725015Y-80756625D01*
X166725015Y-81564748D01*
X167162748Y-81127015D01*
X166792358Y-80217877D02*
X166792358Y-80150534D01*
X166826030Y-80049519D01*
X166994389Y-79881160D01*
X167095404Y-79847488D01*
X167162748Y-79847488D01*
X167263763Y-79881160D01*
X167331106Y-79948503D01*
X167398450Y-80083190D01*
X167398450Y-80891312D01*
X167836183Y-80453580D01*
X168267312Y-81800450D02*
X167694893Y-81699435D01*
X167863251Y-82204511D02*
X167156145Y-81497404D01*
X167425519Y-81228030D01*
X167526534Y-81194358D01*
X167593877Y-81194358D01*
X167694893Y-81228030D01*
X167795908Y-81329045D01*
X167829580Y-81430061D01*
X167829580Y-81497404D01*
X167795908Y-81598419D01*
X167526534Y-81867793D01*
X167896923Y-80891312D02*
X167896923Y-80823969D01*
X167930595Y-80722954D01*
X168098954Y-80554595D01*
X168199969Y-80520923D01*
X168267312Y-80520923D01*
X168368328Y-80554595D01*
X168435671Y-80621938D01*
X168503015Y-80756625D01*
X168503015Y-81564748D01*
X168940748Y-81127015D01*
X169614183Y-80453580D02*
X169210122Y-80857641D01*
X169412152Y-80655610D02*
X168705045Y-79948503D01*
X168738717Y-80116862D01*
X168738717Y-80251549D01*
X168705045Y-80352564D01*
X167076380Y-107830857D02*
X166600190Y-108164190D01*
X167076380Y-108402285D02*
X166076380Y-108402285D01*
X166076380Y-108021333D01*
X166124000Y-107926095D01*
X166171619Y-107878476D01*
X166266857Y-107830857D01*
X166409714Y-107830857D01*
X166504952Y-107878476D01*
X166552571Y-107926095D01*
X166600190Y-108021333D01*
X166600190Y-108402285D01*
X166171619Y-107449904D02*
X166124000Y-107402285D01*
X166076380Y-107307047D01*
X166076380Y-107068952D01*
X166124000Y-106973714D01*
X166171619Y-106926095D01*
X166266857Y-106878476D01*
X166362095Y-106878476D01*
X166504952Y-106926095D01*
X167076380Y-107497523D01*
X167076380Y-106878476D01*
X166076380Y-106259428D02*
X166076380Y-106164190D01*
X166124000Y-106068952D01*
X166171619Y-106021333D01*
X166266857Y-105973714D01*
X166457333Y-105926095D01*
X166695428Y-105926095D01*
X166885904Y-105973714D01*
X166981142Y-106021333D01*
X167028761Y-106068952D01*
X167076380Y-106164190D01*
X167076380Y-106259428D01*
X167028761Y-106354666D01*
X166981142Y-106402285D01*
X166885904Y-106449904D01*
X166695428Y-106497523D01*
X166457333Y-106497523D01*
X166266857Y-106449904D01*
X166171619Y-106402285D01*
X166124000Y-106354666D01*
X166076380Y-106259428D01*
X168854380Y-107830857D02*
X168378190Y-108164190D01*
X168854380Y-108402285D02*
X167854380Y-108402285D01*
X167854380Y-108021333D01*
X167902000Y-107926095D01*
X167949619Y-107878476D01*
X168044857Y-107830857D01*
X168187714Y-107830857D01*
X168282952Y-107878476D01*
X168330571Y-107926095D01*
X168378190Y-108021333D01*
X168378190Y-108402285D01*
X168854380Y-106878476D02*
X168854380Y-107449904D01*
X168854380Y-107164190D02*
X167854380Y-107164190D01*
X167997238Y-107259428D01*
X168092476Y-107354666D01*
X168140095Y-107449904D01*
X168854380Y-106402285D02*
X168854380Y-106211809D01*
X168806761Y-106116571D01*
X168759142Y-106068952D01*
X168616285Y-105973714D01*
X168425809Y-105926095D01*
X168044857Y-105926095D01*
X167949619Y-105973714D01*
X167902000Y-106021333D01*
X167854380Y-106116571D01*
X167854380Y-106307047D01*
X167902000Y-106402285D01*
X167949619Y-106449904D01*
X168044857Y-106497523D01*
X168282952Y-106497523D01*
X168378190Y-106449904D01*
X168425809Y-106402285D01*
X168473428Y-106307047D01*
X168473428Y-106116571D01*
X168425809Y-106021333D01*
X168378190Y-105973714D01*
X168282952Y-105926095D01*
X170886380Y-107830857D02*
X170410190Y-108164190D01*
X170886380Y-108402285D02*
X169886380Y-108402285D01*
X169886380Y-108021333D01*
X169934000Y-107926095D01*
X169981619Y-107878476D01*
X170076857Y-107830857D01*
X170219714Y-107830857D01*
X170314952Y-107878476D01*
X170362571Y-107926095D01*
X170410190Y-108021333D01*
X170410190Y-108402285D01*
X170886380Y-106878476D02*
X170886380Y-107449904D01*
X170886380Y-107164190D02*
X169886380Y-107164190D01*
X170029238Y-107259428D01*
X170124476Y-107354666D01*
X170172095Y-107449904D01*
X170314952Y-106307047D02*
X170267333Y-106402285D01*
X170219714Y-106449904D01*
X170124476Y-106497523D01*
X170076857Y-106497523D01*
X169981619Y-106449904D01*
X169934000Y-106402285D01*
X169886380Y-106307047D01*
X169886380Y-106116571D01*
X169934000Y-106021333D01*
X169981619Y-105973714D01*
X170076857Y-105926095D01*
X170124476Y-105926095D01*
X170219714Y-105973714D01*
X170267333Y-106021333D01*
X170314952Y-106116571D01*
X170314952Y-106307047D01*
X170362571Y-106402285D01*
X170410190Y-106449904D01*
X170505428Y-106497523D01*
X170695904Y-106497523D01*
X170791142Y-106449904D01*
X170838761Y-106402285D01*
X170886380Y-106307047D01*
X170886380Y-106116571D01*
X170838761Y-106021333D01*
X170791142Y-105973714D01*
X170695904Y-105926095D01*
X170505428Y-105926095D01*
X170410190Y-105973714D01*
X170362571Y-106021333D01*
X170314952Y-106116571D01*
X172077312Y-81800450D02*
X171504893Y-81699435D01*
X171673251Y-82204511D02*
X170966145Y-81497404D01*
X171235519Y-81228030D01*
X171336534Y-81194358D01*
X171403877Y-81194358D01*
X171504893Y-81228030D01*
X171605908Y-81329045D01*
X171639580Y-81430061D01*
X171639580Y-81497404D01*
X171605908Y-81598419D01*
X171336534Y-81867793D01*
X172750748Y-81127015D02*
X172346687Y-81531076D01*
X172548717Y-81329045D02*
X171841610Y-80621938D01*
X171875282Y-80790297D01*
X171875282Y-80924984D01*
X171841610Y-81026000D01*
X172279343Y-80184206D02*
X172750748Y-79712801D01*
X173154809Y-80722954D01*
X170299312Y-81800450D02*
X169726893Y-81699435D01*
X169895251Y-82204511D02*
X169188145Y-81497404D01*
X169457519Y-81228030D01*
X169558534Y-81194358D01*
X169625877Y-81194358D01*
X169726893Y-81228030D01*
X169827908Y-81329045D01*
X169861580Y-81430061D01*
X169861580Y-81497404D01*
X169827908Y-81598419D01*
X169558534Y-81867793D01*
X170972748Y-81127015D02*
X170568687Y-81531076D01*
X170770717Y-81329045D02*
X170063610Y-80621938D01*
X170097282Y-80790297D01*
X170097282Y-80924984D01*
X170063610Y-81026000D01*
X170871732Y-79813816D02*
X170737045Y-79948503D01*
X170703374Y-80049519D01*
X170703374Y-80116862D01*
X170737045Y-80285221D01*
X170838061Y-80453580D01*
X171107435Y-80722954D01*
X171208450Y-80756625D01*
X171275793Y-80756625D01*
X171376809Y-80722954D01*
X171511496Y-80588267D01*
X171545167Y-80487251D01*
X171545167Y-80419908D01*
X171511496Y-80318893D01*
X171343137Y-80150534D01*
X171242122Y-80116862D01*
X171174778Y-80116862D01*
X171073763Y-80150534D01*
X170939076Y-80285221D01*
X170905404Y-80386236D01*
X170905404Y-80453580D01*
X170939076Y-80554595D01*
X164790380Y-107830857D02*
X164314190Y-108164190D01*
X164790380Y-108402285D02*
X163790380Y-108402285D01*
X163790380Y-108021333D01*
X163838000Y-107926095D01*
X163885619Y-107878476D01*
X163980857Y-107830857D01*
X164123714Y-107830857D01*
X164218952Y-107878476D01*
X164266571Y-107926095D01*
X164314190Y-108021333D01*
X164314190Y-108402285D01*
X164790380Y-106878476D02*
X164790380Y-107449904D01*
X164790380Y-107164190D02*
X163790380Y-107164190D01*
X163933238Y-107259428D01*
X164028476Y-107354666D01*
X164076095Y-107449904D01*
X163790380Y-105973714D02*
X163790380Y-106449904D01*
X164266571Y-106497523D01*
X164218952Y-106449904D01*
X164171333Y-106354666D01*
X164171333Y-106116571D01*
X164218952Y-106021333D01*
X164266571Y-105973714D01*
X164361809Y-105926095D01*
X164599904Y-105926095D01*
X164695142Y-105973714D01*
X164742761Y-106021333D01*
X164790380Y-106116571D01*
X164790380Y-106354666D01*
X164742761Y-106449904D01*
X164695142Y-106497523D01*
X158361312Y-81800450D02*
X157788893Y-81699435D01*
X157957251Y-82204511D02*
X157250145Y-81497404D01*
X157519519Y-81228030D01*
X157620534Y-81194358D01*
X157687877Y-81194358D01*
X157788893Y-81228030D01*
X157889908Y-81329045D01*
X157923580Y-81430061D01*
X157923580Y-81497404D01*
X157889908Y-81598419D01*
X157620534Y-81867793D01*
X159034748Y-81127015D02*
X158630687Y-81531076D01*
X158832717Y-81329045D02*
X158125610Y-80621938D01*
X158159282Y-80790297D01*
X158159282Y-80924984D01*
X158125610Y-81026000D01*
X159169435Y-80049519D02*
X159640839Y-80520923D01*
X158731702Y-79948503D02*
X159068419Y-80621938D01*
X159506152Y-80184206D01*
X160393312Y-81800450D02*
X159820893Y-81699435D01*
X159989251Y-82204511D02*
X159282145Y-81497404D01*
X159551519Y-81228030D01*
X159652534Y-81194358D01*
X159719877Y-81194358D01*
X159820893Y-81228030D01*
X159921908Y-81329045D01*
X159955580Y-81430061D01*
X159955580Y-81497404D01*
X159921908Y-81598419D01*
X159652534Y-81867793D01*
X161066748Y-81127015D02*
X160662687Y-81531076D01*
X160864717Y-81329045D02*
X160157610Y-80621938D01*
X160191282Y-80790297D01*
X160191282Y-80924984D01*
X160157610Y-81026000D01*
X160595343Y-80184206D02*
X161033076Y-79746473D01*
X161066748Y-80251549D01*
X161167763Y-80150534D01*
X161268778Y-80116862D01*
X161336122Y-80116862D01*
X161437137Y-80150534D01*
X161605496Y-80318893D01*
X161639167Y-80419908D01*
X161639167Y-80487251D01*
X161605496Y-80588267D01*
X161403465Y-80790297D01*
X161302450Y-80823969D01*
X161235106Y-80823969D01*
X158948380Y-107830857D02*
X158472190Y-108164190D01*
X158948380Y-108402285D02*
X157948380Y-108402285D01*
X157948380Y-108021333D01*
X157996000Y-107926095D01*
X158043619Y-107878476D01*
X158138857Y-107830857D01*
X158281714Y-107830857D01*
X158376952Y-107878476D01*
X158424571Y-107926095D01*
X158472190Y-108021333D01*
X158472190Y-108402285D01*
X158948380Y-106878476D02*
X158948380Y-107449904D01*
X158948380Y-107164190D02*
X157948380Y-107164190D01*
X158091238Y-107259428D01*
X158186476Y-107354666D01*
X158234095Y-107449904D01*
X158043619Y-106497523D02*
X157996000Y-106449904D01*
X157948380Y-106354666D01*
X157948380Y-106116571D01*
X157996000Y-106021333D01*
X158043619Y-105973714D01*
X158138857Y-105926095D01*
X158234095Y-105926095D01*
X158376952Y-105973714D01*
X158948380Y-106545142D01*
X158948380Y-105926095D01*
X160980380Y-107830857D02*
X160504190Y-108164190D01*
X160980380Y-108402285D02*
X159980380Y-108402285D01*
X159980380Y-108021333D01*
X160028000Y-107926095D01*
X160075619Y-107878476D01*
X160170857Y-107830857D01*
X160313714Y-107830857D01*
X160408952Y-107878476D01*
X160456571Y-107926095D01*
X160504190Y-108021333D01*
X160504190Y-108402285D01*
X160980380Y-106878476D02*
X160980380Y-107449904D01*
X160980380Y-107164190D02*
X159980380Y-107164190D01*
X160123238Y-107259428D01*
X160218476Y-107354666D01*
X160266095Y-107449904D01*
X160980380Y-105926095D02*
X160980380Y-106497523D01*
X160980380Y-106211809D02*
X159980380Y-106211809D01*
X160123238Y-106307047D01*
X160218476Y-106402285D01*
X160266095Y-106497523D01*
X162758380Y-107830857D02*
X162282190Y-108164190D01*
X162758380Y-108402285D02*
X161758380Y-108402285D01*
X161758380Y-108021333D01*
X161806000Y-107926095D01*
X161853619Y-107878476D01*
X161948857Y-107830857D01*
X162091714Y-107830857D01*
X162186952Y-107878476D01*
X162234571Y-107926095D01*
X162282190Y-108021333D01*
X162282190Y-108402285D01*
X162758380Y-106878476D02*
X162758380Y-107449904D01*
X162758380Y-107164190D02*
X161758380Y-107164190D01*
X161901238Y-107259428D01*
X161996476Y-107354666D01*
X162044095Y-107449904D01*
X161758380Y-106259428D02*
X161758380Y-106164190D01*
X161806000Y-106068952D01*
X161853619Y-106021333D01*
X161948857Y-105973714D01*
X162139333Y-105926095D01*
X162377428Y-105926095D01*
X162567904Y-105973714D01*
X162663142Y-106021333D01*
X162710761Y-106068952D01*
X162758380Y-106164190D01*
X162758380Y-106259428D01*
X162710761Y-106354666D01*
X162663142Y-106402285D01*
X162567904Y-106449904D01*
X162377428Y-106497523D01*
X162139333Y-106497523D01*
X161948857Y-106449904D01*
X161853619Y-106402285D01*
X161806000Y-106354666D01*
X161758380Y-106259428D01*
X164540030Y-81800450D02*
X163967610Y-81699435D01*
X164135969Y-82204511D02*
X163428862Y-81497405D01*
X163698236Y-81228030D01*
X163799251Y-81194359D01*
X163866595Y-81194359D01*
X163967610Y-81228030D01*
X164068625Y-81329046D01*
X164102297Y-81430061D01*
X164102297Y-81497405D01*
X164068625Y-81598420D01*
X163799251Y-81867794D01*
X164876748Y-81463733D02*
X165011435Y-81329046D01*
X165045106Y-81228030D01*
X165045106Y-81160687D01*
X165011435Y-80992328D01*
X164910419Y-80823969D01*
X164641045Y-80554595D01*
X164540030Y-80520924D01*
X164472687Y-80520924D01*
X164371671Y-80554595D01*
X164236984Y-80689282D01*
X164203312Y-80790298D01*
X164203312Y-80857641D01*
X164236984Y-80958656D01*
X164405343Y-81127015D01*
X164506358Y-81160687D01*
X164573702Y-81160687D01*
X164674717Y-81127015D01*
X164809404Y-80992328D01*
X164843076Y-80891313D01*
X164843076Y-80823969D01*
X164809404Y-80722954D01*
X162508030Y-81800450D02*
X161935610Y-81699435D01*
X162103969Y-82204511D02*
X161396862Y-81497405D01*
X161666236Y-81228030D01*
X161767251Y-81194359D01*
X161834595Y-81194359D01*
X161935610Y-81228030D01*
X162036625Y-81329046D01*
X162070297Y-81430061D01*
X162070297Y-81497405D01*
X162036625Y-81598420D01*
X161767251Y-81867794D01*
X162508030Y-80992328D02*
X162407015Y-81026000D01*
X162339671Y-81026000D01*
X162238656Y-80992328D01*
X162204984Y-80958656D01*
X162171312Y-80857641D01*
X162171312Y-80790298D01*
X162204984Y-80689282D01*
X162339671Y-80554595D01*
X162440687Y-80520924D01*
X162508030Y-80520924D01*
X162609045Y-80554595D01*
X162642717Y-80588267D01*
X162676389Y-80689282D01*
X162676389Y-80756626D01*
X162642717Y-80857641D01*
X162508030Y-80992328D01*
X162474358Y-81093343D01*
X162474358Y-81160687D01*
X162508030Y-81261702D01*
X162642717Y-81396389D01*
X162743732Y-81430061D01*
X162811076Y-81430061D01*
X162912091Y-81396389D01*
X163046778Y-81261702D01*
X163080450Y-81160687D01*
X163080450Y-81093343D01*
X163046778Y-80992328D01*
X162912091Y-80857641D01*
X162811076Y-80823969D01*
X162743732Y-80823969D01*
X162642717Y-80857641D01*
X190825380Y-114212666D02*
X190349190Y-114546000D01*
X190825380Y-114784095D02*
X189825380Y-114784095D01*
X189825380Y-114403142D01*
X189873000Y-114307904D01*
X189920619Y-114260285D01*
X190015857Y-114212666D01*
X190158714Y-114212666D01*
X190253952Y-114260285D01*
X190301571Y-114307904D01*
X190349190Y-114403142D01*
X190349190Y-114784095D01*
X189825380Y-113879333D02*
X189825380Y-113212666D01*
X190825380Y-113641238D01*
X176728380Y-114212666D02*
X176252190Y-114546000D01*
X176728380Y-114784095D02*
X175728380Y-114784095D01*
X175728380Y-114403142D01*
X175776000Y-114307904D01*
X175823619Y-114260285D01*
X175918857Y-114212666D01*
X176061714Y-114212666D01*
X176156952Y-114260285D01*
X176204571Y-114307904D01*
X176252190Y-114403142D01*
X176252190Y-114784095D01*
X175728380Y-113355523D02*
X175728380Y-113546000D01*
X175776000Y-113641238D01*
X175823619Y-113688857D01*
X175966476Y-113784095D01*
X176156952Y-113831714D01*
X176537904Y-113831714D01*
X176633142Y-113784095D01*
X176680761Y-113736476D01*
X176728380Y-113641238D01*
X176728380Y-113450761D01*
X176680761Y-113355523D01*
X176633142Y-113307904D01*
X176537904Y-113260285D01*
X176299809Y-113260285D01*
X176204571Y-113307904D01*
X176156952Y-113355523D01*
X176109333Y-113450761D01*
X176109333Y-113641238D01*
X176156952Y-113736476D01*
X176204571Y-113784095D01*
X176299809Y-113831714D01*
X163520380Y-113958666D02*
X163044190Y-114292000D01*
X163520380Y-114530095D02*
X162520380Y-114530095D01*
X162520380Y-114149142D01*
X162568000Y-114053904D01*
X162615619Y-114006285D01*
X162710857Y-113958666D01*
X162853714Y-113958666D01*
X162948952Y-114006285D01*
X162996571Y-114053904D01*
X163044190Y-114149142D01*
X163044190Y-114530095D01*
X162520380Y-113053904D02*
X162520380Y-113530095D01*
X162996571Y-113577714D01*
X162948952Y-113530095D01*
X162901333Y-113434857D01*
X162901333Y-113196761D01*
X162948952Y-113101523D01*
X162996571Y-113053904D01*
X163091809Y-113006285D01*
X163329904Y-113006285D01*
X163425142Y-113053904D01*
X163472761Y-113101523D01*
X163520380Y-113196761D01*
X163520380Y-113434857D01*
X163472761Y-113530095D01*
X163425142Y-113577714D01*
X145286750Y-127055266D02*
X144810560Y-127388600D01*
X145286750Y-127626695D02*
X144286750Y-127626695D01*
X144286750Y-127245742D01*
X144334370Y-127150504D01*
X144381989Y-127102885D01*
X144477227Y-127055266D01*
X144620084Y-127055266D01*
X144715322Y-127102885D01*
X144762941Y-127150504D01*
X144810560Y-127245742D01*
X144810560Y-127626695D01*
X144620084Y-126198123D02*
X145286750Y-126198123D01*
X144239131Y-126436219D02*
X144953417Y-126674314D01*
X144953417Y-126055266D01*
X147391380Y-127055266D02*
X146915190Y-127388600D01*
X147391380Y-127626695D02*
X146391380Y-127626695D01*
X146391380Y-127245742D01*
X146439000Y-127150504D01*
X146486619Y-127102885D01*
X146581857Y-127055266D01*
X146724714Y-127055266D01*
X146819952Y-127102885D01*
X146867571Y-127150504D01*
X146915190Y-127245742D01*
X146915190Y-127626695D01*
X146391380Y-126721933D02*
X146391380Y-126102885D01*
X146772333Y-126436219D01*
X146772333Y-126293361D01*
X146819952Y-126198123D01*
X146867571Y-126150504D01*
X146962809Y-126102885D01*
X147200904Y-126102885D01*
X147296142Y-126150504D01*
X147343761Y-126198123D01*
X147391380Y-126293361D01*
X147391380Y-126579076D01*
X147343761Y-126674314D01*
X147296142Y-126721933D01*
X138898333Y-103830380D02*
X138565000Y-103354190D01*
X138326904Y-103830380D02*
X138326904Y-102830380D01*
X138707857Y-102830380D01*
X138803095Y-102878000D01*
X138850714Y-102925619D01*
X138898333Y-103020857D01*
X138898333Y-103163714D01*
X138850714Y-103258952D01*
X138803095Y-103306571D01*
X138707857Y-103354190D01*
X138326904Y-103354190D01*
X139279285Y-102925619D02*
X139326904Y-102878000D01*
X139422142Y-102830380D01*
X139660238Y-102830380D01*
X139755476Y-102878000D01*
X139803095Y-102925619D01*
X139850714Y-103020857D01*
X139850714Y-103116095D01*
X139803095Y-103258952D01*
X139231666Y-103830380D01*
X139850714Y-103830380D01*
X149524980Y-127055266D02*
X149048790Y-127388600D01*
X149524980Y-127626695D02*
X148524980Y-127626695D01*
X148524980Y-127245742D01*
X148572600Y-127150504D01*
X148620219Y-127102885D01*
X148715457Y-127055266D01*
X148858314Y-127055266D01*
X148953552Y-127102885D01*
X149001171Y-127150504D01*
X149048790Y-127245742D01*
X149048790Y-127626695D01*
X149524980Y-126102885D02*
X149524980Y-126674314D01*
X149524980Y-126388600D02*
X148524980Y-126388600D01*
X148667838Y-126483838D01*
X148763076Y-126579076D01*
X148810695Y-126674314D01*
X137866380Y-95988095D02*
X136866380Y-95988095D01*
X136866380Y-95750000D01*
X136914000Y-95607142D01*
X137009238Y-95511904D01*
X137104476Y-95464285D01*
X137294952Y-95416666D01*
X137437809Y-95416666D01*
X137628285Y-95464285D01*
X137723523Y-95511904D01*
X137818761Y-95607142D01*
X137866380Y-95750000D01*
X137866380Y-95988095D01*
X137866380Y-94464285D02*
X137866380Y-95035714D01*
X137866380Y-94750000D02*
X136866380Y-94750000D01*
X137009238Y-94845238D01*
X137104476Y-94940476D01*
X137152095Y-95035714D01*
M02*
